<?xml version="1.0" encoding="utf-8"?>
<!-- Generator: Adobe Illustrator 19.2.1, SVG Export Plug-In . SVG Version: 6.00 Build 0)  -->
<svg version="1.1" id="Layer_1" xmlns="http://www.w3.org/2000/svg" xmlns:xlink="http://www.w3.org/1999/xlink" x="0px" y="0px"
	 viewBox="0 0 100.2 112.7" style="enable-background:new 0 0 100.2 112.7;" xml:space="preserve">
<style type="text/css">
	.st0{fill:#E0E7EE;}
</style>
<g>
	<rect x="43.9" y="0.1" class="st0" width="12.5" height="62.5"/>
	<path class="st0" d="M88.4,48.5h9.9c-2.2-7.9-6.5-15-12.7-21.3c-5-5-10.6-8.7-16.6-11.1v10.3c3.6,1.9,6.9,4.4,10,7.4
		C83.2,38.3,86.4,43.2,88.4,48.5L88.4,48.5z"/>
	<path class="st0" d="M99.9,67.3c0.1-1.5,0.2-3.1,0.2-4.7s-0.1-3.1-0.2-4.7H68.9v9.4h21.6c-1,9.2-4.8,17.2-11.6,24
		c-8,8-17.5,11.9-28.8,11.9s-20.8-4-28.7-11.9C13.5,83.4,9.5,73.8,9.5,62.6s4-20.8,11.9-28.8c3-3,6.4-5.5,9.9-7.4V16.1
		c-6,2.4-11.6,6.1-16.6,11.1C5,37,0.1,48.8,0.1,62.6C0.1,76.4,5,88.2,14.8,98c9.8,9.8,21.6,14.7,35.3,14.7s25.6-4.9,35.4-14.7
		C94.1,89.3,98.9,79.1,99.9,67.3L99.9,67.3z"/>
</g>
</svg>
