<?xml version="1.0" encoding="utf-8"?>
<!-- Generator: Adobe Illustrator 19.2.1, SVG Export Plug-In . SVG Version: 6.00 Build 0)  -->
<svg version="1.1" id="Background_xA0_Image_1_" xmlns="http://www.w3.org/2000/svg" xmlns:xlink="http://www.w3.org/1999/xlink"
	 x="0px" y="0px" viewBox="0 0 732 822.4" style="enable-background:new 0 0 732 822.4;" xml:space="preserve">
<style type="text/css">
	.st0{opacity:0.1;}
	.st1{opacity:0.2;fill:#00FF00;}
	.st2{fill:#D6FFFF;}
	.st3{fill:#FFBF55;}
	.st4{fill:#B3B3B3;}
	.st5{fill:#FF9FAA;}
	.st6{fill:#808080;stroke:#000000;stroke-miterlimit:10;}
	.st7{fill:#FF0000;stroke:#000000;stroke-miterlimit:10;}
	.st8{stroke:#000000;stroke-miterlimit:10;}
	.st9{fill:#7F00FF;stroke:#000000;stroke-miterlimit:10;}
	.st10{fill:#2A1FFF;stroke:#000000;stroke-miterlimit:10;}
	.st11{fill:#00FF00;stroke:#000000;stroke-miterlimit:10;}
	.st12{fill:#FF00FF;stroke:#231F20;stroke-miterlimit:10;}
	.st13{fill:#B5B3B3;stroke:#000000;stroke-miterlimit:10;}
	.st14{fill:#0000FF;stroke:#000000;stroke-miterlimit:10;}
	.st15{fill:#00FFFF;stroke:#231F20;stroke-miterlimit:10;}
	.st16{fill:#00FF00;stroke:#231F20;stroke-miterlimit:10;}
	.st17{fill:#FF5F00;stroke:#000000;stroke-miterlimit:10;}
	.st18{fill:#FF00FF;stroke:#000000;stroke-miterlimit:10;}
	.st19{fill:none;stroke:#000000;stroke-width:2;stroke-miterlimit:10;}
	.st20{fill:none;}
	.st21{font-family:'DSNKamonBold75';}
	.st22{font-size:21px;}
	.st23{letter-spacing:97;}
	.st24{letter-spacing:12;}
	.st25{letter-spacing:2;}
	.st26{letter-spacing:16;}
	.st27{letter-spacing:79;}
	.st28{font-size:28px;}
	.st29{fill:#0000FF;}
	.st30{letter-spacing:10;}
	.st31{fill:#231F20;}
	.st32{letter-spacing:6;}
	.st33{letter-spacing:7;}
	.st34{letter-spacing:90;}
	.st35{letter-spacing:143;}
	.st36{letter-spacing:87;}
	.st37{letter-spacing:28;}
	.st38{letter-spacing:25;}
	.st39{letter-spacing:98;}
	.st40{fill:#009245;}
	.st41{letter-spacing:17;}
	.st42{fill:#808080;}
	.st43{letter-spacing:9;}
	.st44{letter-spacing:15;}
	.st45{letter-spacing:83;}
	.st46{fill:#FF00FF;}
	.st47{fill:#FF7F00;}
	.st48{letter-spacing:84;}
	.st49{letter-spacing:60;}
	.st50{letter-spacing:19;}
	.st51{letter-spacing:62;}
	.st52{letter-spacing:80;}
	.st53{letter-spacing:18;}
	.st54{letter-spacing:68;}
	.st55{fill:#7F00FF;}
	.st56{letter-spacing:72;}
	.st57{letter-spacing:124;}
	.st58{font-size:60px;}
	.st59{font-size:24px;}
	.st60{fill:#666666;}
	.st61{font-size:36px;}
	.st62{letter-spacing:-6.9;}
	.st63{letter-spacing:6.9;}
	.st64{letter-spacing:1.7;}
	.st65{letter-spacing:82.3;}
	.st66{letter-spacing:-3.4;}
	.st67{letter-spacing:18.9;}
	.st68{fill:#606060;}
	.st69{letter-spacing:-6;}
	.st70{letter-spacing:5;}
	.st71{fill:#0071BC;}
	.st72{fill:#FF7F00;stroke:#231F20;stroke-width:0.5;stroke-miterlimit:10;}
	.st73{fill:#75A928;}
	.st74{fill:#BC1142;}
</style>
<rect x="212.6" y="65.2" transform="matrix(-1 -8.978430e-011 8.978430e-011 -1 459.2126 782.3622)" class="st0" width="34" height="652"/>
<rect x="482" y="65.2" transform="matrix(-1 -8.978430e-011 8.978430e-011 -1 998.0945 782.3622)" class="st0" width="34" height="652"/>
<rect x="246.6" y="65.2" transform="matrix(-1 -8.978875e-011 8.978875e-011 -1 530.0787 782.3622)" class="st1" width="36.9" height="652"/>
<rect x="445" y="65.2" transform="matrix(-1 -8.978875e-011 8.978875e-011 -1 926.9291 782.3622)" class="st1" width="36.9" height="652"/>
<rect x="405.4" y="281.8" transform="matrix(-1 -8.978830e-011 8.978830e-011 -1 1102.6771 594.745)" class="st2" width="292" height="31.2"/>
<rect x="36.9" y="281.8" transform="matrix(-1 -8.979452e-011 8.979452e-011 -1 365.6693 594.745)" class="st2" width="292" height="31.2"/>
<rect x="405.4" y="437.7" transform="matrix(-1 -8.978830e-011 8.978830e-011 -1 1102.6771 906.556)" class="st3" width="292" height="31.2"/>
<rect x="405.4" y="562.4" transform="matrix(-1 -8.980074e-011 8.980074e-011 -1 1102.6771 1156.0049)" class="st4" width="292" height="31.2"/>
<rect x="405.4" y="313" transform="matrix(-1 -8.978830e-011 8.978830e-011 -1 1102.6771 657.1072)" class="st4" width="292" height="31.2"/>
<rect x="405.4" y="94.7" transform="matrix(-1 -8.978830e-011 8.978830e-011 -1 1102.6771 220.5718)" class="st4" width="292" height="31.2"/>
<rect x="405.4" y="687.1" transform="matrix(-1 -8.980074e-011 8.980074e-011 -1 1102.6771 1405.4537)" class="st3" width="292" height="31.2"/>
<rect x="36.9" y="687.1" transform="matrix(-1 -8.978830e-011 8.978830e-011 -1 365.6693 1405.4537)" class="st5" width="292" height="31.2"/>
<rect x="36.9" y="656" transform="matrix(-1 -8.980074e-011 8.980074e-011 -1 365.6693 1343.0914)" class="st5" width="292" height="31.2"/>
<rect x="36.9" y="624.8" transform="matrix(-1 -8.979452e-011 8.979452e-011 -1 365.6693 1280.7292)" class="st4" width="292" height="31.2"/>
<rect x="36.9" y="500" transform="matrix(-1 -8.980074e-011 8.980074e-011 -1 365.6693 1031.2804)" class="st4" width="292" height="31.2"/>
<rect x="36.9" y="406.5" transform="matrix(-1 -8.979452e-011 8.979452e-011 -1 365.6693 844.1938)" class="st4" width="292" height="31.2"/>
<rect x="36.9" y="250.6" transform="matrix(-1 -8.979452e-011 8.979452e-011 -1 365.6693 532.3828)" class="st4" width="292" height="31.2"/>
<rect x="36.9" y="188.2" transform="matrix(-1 -8.979452e-011 8.979452e-011 -1 365.6693 407.6584)" class="st4" width="292" height="31.2"/>
<path class="st6" d="M337.3,89h59.5c4.7,0,8.5,3.8,8.5,8.5v619.4c0,4.7-3.8,8.5-8.5,8.5h-59.5c-4.7,0-8.5-3.8-8.5-8.5V97.5
	C328.8,92.9,332.6,89,337.3,89z"/>
<circle class="st7" cx="351.5" cy="671.5" r="11.3"/>
<circle class="st8" cx="351.5" cy="640.4" r="11.3"/>
<circle class="st9" cx="351.5" cy="609.2" r="11.3"/>
<circle class="st9" cx="351.5" cy="578" r="11.3"/>
<circle class="st10" cx="351.5" cy="546.8" r="11.3"/>
<circle class="st8" cx="351.5" cy="515.6" r="11.3"/>
<circle class="st11" cx="351.5" cy="484.5" r="11.3"/>
<circle class="st11" cx="351.5" cy="453.3" r="11.3"/>
<circle class="st8" cx="351.5" cy="422.1" r="11.3"/>
<circle class="st11" cx="351.5" cy="390.9" r="11.3"/>
<circle class="st12" cx="351.5" cy="359.7" r="11.3"/>
<circle class="st12" cx="351.5" cy="328.6" r="11.3"/>
<circle class="st13" cx="351.5" cy="297.4" r="11.3"/>
<circle class="st8" cx="351.5" cy="266.2" r="11.3"/>
<circle class="st11" cx="351.5" cy="235" r="11.3"/>
<circle class="st8" cx="351.5" cy="203.8" r="11.3"/>
<circle class="st11" cx="351.5" cy="172.6" r="11.3"/>
<circle class="st14" cx="351.5" cy="141.5" r="11.3"/>
<circle class="st10" cx="351.5" cy="110.3" r="11.3"/>
<circle class="st15" cx="382.7" cy="671.5" r="11.3"/>
<circle class="st15" cx="382.7" cy="640.4" r="11.3"/>
<circle class="st16" cx="382.7" cy="609.2" r="11.3"/>
<circle class="st8" cx="382.7" cy="578" r="11.3"/>
<circle class="st11" cx="382.7" cy="546.8" r="11.3"/>
<circle class="st11" cx="382.7" cy="515.6" r="11.3"/>
<circle class="st11" cx="382.7" cy="484.5" r="11.3"/>
<circle class="st17" cx="382.7" cy="453.3" r="11.3"/>
<circle class="st18" cx="382.7" cy="422.1" r="11.3"/>
<circle class="st18" cx="382.7" cy="390.9" r="11.3"/>
<circle class="st18" cx="382.7" cy="359.7" r="11.3"/>
<circle class="st8" cx="382.7" cy="328.6" r="11.3"/>
<circle class="st13" cx="382.7" cy="297.4" r="11.3"/>
<circle class="st16" cx="382.7" cy="266.2" r="11.3"/>
<circle class="st16" cx="382.7" cy="235" r="11.3"/>
<circle class="st11" cx="382.7" cy="203.8" r="11.3"/>
<circle class="st10" cx="382.7" cy="172.6" r="11.3"/>
<circle class="st11" cx="382.7" cy="141.5" r="11.3"/>
<circle class="st8" cx="382.7" cy="110.3" r="11.3"/>
<path class="st17" d="M374.2,691.4h17c1.6,0,2.8,1.3,2.8,2.8v17c0,1.6-1.3,2.8-2.8,2.8h-17c-1.6,0-2.8-1.3-2.8-2.8v-17
	C371.3,692.7,372.6,691.4,374.2,691.4z"/>
<circle class="st19" cx="367.1" cy="766.5" r="18.4"/>
<circle class="st19" cx="367.1" cy="52.2" r="18.4"/>
<path class="st19" d="M322.4,29.5v730.7c0,24,19.5,43.5,43.5,43.5h325.7"/>
<rect x="47.2" y="75.7" class="st20" width="297.6" height="648.8"/>
<text transform="matrix(1 0 0 1 47.1889 86.034)" class="st21 st22 st23">	</text>
<text transform="matrix(1 0 0 1 151.8021 86.034)" class="st21 st22">Function</text>
<text transform="matrix(1 0 0 1 200.1801 86.034)" class="st21 st22 st24">	</text>
<text transform="matrix(1 0 0 1 219.7631 86.034)" class="st21 st22">wPi</text>
<text transform="matrix(1 0 0 1 238.5277 86.034)" class="st21 st22 st25">	</text>
<text transform="matrix(1 0 0 1 248.5512 86.034)" class="st21 st22">BCM</text>
<text transform="matrix(1 0 0 1 273.9594 86.034)" class="st21 st22 st26">	</text>
<text transform="matrix(1 0 0 1 297.0472 86.034)" class="st21 st22">J8</text>
<text transform="matrix(1 0 0 1 47.1889 117.1839)" class="st21 st22 st27">	</text>
<text transform="matrix(1 0 0 1 134.0619 117.1839)" class="st21 st28">I</text>
<text transform="matrix(0.583 0 0 0.583 138.2045 107.8597)" class="st21 st28">2</text>
<text transform="matrix(1 0 0 1 143.5922 117.1839)" class="st21 st28">S </text>
<text transform="matrix(1 0 0 1 160.9008 117.1839)" class="st29 st21 st28">DOUT</text>
<text transform="matrix(1 0 0 1 200.1801 117.1839)" class="st29 st21 st28 st30">	</text>
<text transform="matrix(1 0 0 1 220.1928 117.1839)" class="st31 st21 st28">29</text>
<text transform="matrix(1 0 0 1 238.5267 117.1839)" class="st31 st21 st28 st32">	</text>
<text transform="matrix(1 0 0 1 254.2455 117.1839)" class="st31 st21 st28">21</text>
<text transform="matrix(1 0 0 1 273.9603 117.1839)" class="st31 st21 st28 st33">	</text>
<text transform="matrix(1 0 0 1 291.223 117.1839)" class="st31 st21 st28">40</text>
<text transform="matrix(1 0 0 1 47.1889 148.3338)" class="st31 st21 st28 st34">	</text>
<text transform="matrix(1 0 0 1 147.2963 148.3338)" class="st21 st28">I</text>
<text transform="matrix(0.583 0 0 0.583 151.4389 139.0101)" class="st21 st28">2</text>
<text transform="matrix(1 0 0 1 156.8266 148.3338)" class="st21 st28">S </text>
<text transform="matrix(1 0 0 1 174.1351 148.3338)" class="st29 st21 st28">DIN</text>
<text transform="matrix(1 0 0 1 200.1801 148.3338)" class="st31 st21 st28 st30">	</text>
<text transform="matrix(1 0 0 1 220.0424 148.3338)" class="st31 st21 st28">28</text>
<text transform="matrix(1 0 0 1 238.5267 148.3338)" class="st31 st21 st28 st33">	</text>
<text transform="matrix(1 0 0 1 255.5853 148.3338)" class="st31 st21 st28">20</text>
<text transform="matrix(1 0 0 1 273.9603 148.3338)" class="st31 st21 st28 st33">	</text>
<text transform="matrix(1 0 0 1 290.9086 148.3338)" class="st31 st21 st28">38</text>
<text transform="matrix(1 0 0 1 47.1889 179.4837)" class="st31 st21 st28 st35">	</text>
<text transform="matrix(1 0 0 1 200.1801 179.4837)" class="st31 st21 st28 st30">	</text>
<text transform="matrix(1 0 0 1 219.8519 179.4837)" class="st31 st21 st28">27</text>
<text transform="matrix(1 0 0 1 238.5277 179.4837)" class="st31 st21 st28 st32">	</text>
<text transform="matrix(1 0 0 1 254.3959 179.4837)" class="st31 st21 st28">16</text>
<text transform="matrix(1 0 0 1 273.9603 179.4837)" class="st31 st21 st28 st33">	</text>
<text transform="matrix(1 0 0 1 291.0599 179.4837)" class="st31 st21 st28">36</text>
<text transform="matrix(1 0 0 1 47.1889 210.6341)" class="st31 st21 st28 st36">	</text>
<text transform="matrix(1 0 0 1 143.8246 210.6341)" class="st31 st21 st28">Ground</text>
<text transform="matrix(1 0 0 1 200.1801 210.6341)" class="st31 st21 st28 st37">	</text>
<text transform="matrix(1 0 0 1 238.5277 210.6341)" class="st31 st21 st28 st38">	</text>
<text transform="matrix(1 0 0 1 273.9603 210.6341)" class="st31 st21 st28 st33">	</text>
<text transform="matrix(1 0 0 1 291.1146 210.6341)" class="st31 st21 st28">34</text>
<text transform="matrix(1 0 0 1 47.1889 241.784)" class="st31 st21 st28 st39">	</text>
<text transform="matrix(1 0 0 1 155.0766 241.784)" class="st40 st21 st28">PWM0</text>
<text transform="matrix(1 0 0 1 200.1801 241.784)" class="st31 st21 st28 st30">	</text>
<text transform="matrix(1 0 0 1 220.1937 241.784)" class="st31 st21 st28">26</text>
<text transform="matrix(1 0 0 1 238.5277 241.784)" class="st31 st21 st28 st32">	</text>
<text transform="matrix(1 0 0 1 254.2455 241.784)" class="st31 st21 st28">12</text>
<text transform="matrix(1 0 0 1 273.9603 241.784)" class="st31 st21 st28 st33">	</text>
<text transform="matrix(1 0 0 1 290.9095 241.784)" class="st31 st21 st28">32</text>
<text transform="matrix(1 0 0 1 47.1889 272.9339)" class="st31 st21 st28 st36">	</text>
<text transform="matrix(1 0 0 1 143.8246 272.9339)" class="st31 st21 st28">Ground</text>
<text transform="matrix(1 0 0 1 200.1801 272.9339)" class="st31 st21 st28 st37">	</text>
<text transform="matrix(1 0 0 1 238.5277 272.9339)" class="st31 st21 st28 st38">	</text>
<text transform="matrix(1 0 0 1 273.9603 272.9339)" class="st31 st21 st28 st33">	</text>
<text transform="matrix(1 0 0 1 291.0189 272.9339)" class="st31 st21 st28">30</text>
<text transform="matrix(1 0 0 1 47.1889 304.0838)" class="st31 st21 st28 st41">	</text>
<text transform="matrix(1 0 0 1 73.6596 304.0838)" class="st21 st28">I</text>
<text transform="matrix(0.583 0 0 0.583 77.8021 294.7601)" class="st21 st28">2</text>
<text transform="matrix(1 0 0 1 83.1898 304.0838)" class="st21 st28">C</text>
<text transform="matrix(1 0 0 1 94.8519 304.0838)" class="st42 st21 st28"> SCL EEPROM</text>
<text transform="matrix(1 0 0 1 200.1801 304.0838)" class="st42 st21 st28 st43">	</text>
<text transform="matrix(1 0 0 1 218.8119 304.0838)" class="st42 st21 st28">31</text>
<text transform="matrix(1 0 0 1 238.5267 304.0838)" class="st42 st21 st28 st44">	</text>
<text transform="matrix(1 0 0 1 263.4877 304.0838)" class="st42 st21 st28">1</text>
<text transform="matrix(1 0 0 1 273.9603 304.0838)" class="st42 st21 st28 st33">	</text>
<text transform="matrix(1 0 0 1 290.9086 304.0838)" class="st42 st21 st28">28</text>
<text transform="matrix(1 0 0 1 47.1889 335.2337)" class="st42 st21 st28 st45">	</text>
<text transform="matrix(1 0 0 1 139.641 335.2337)" class="st21 st28">SPI</text>
<text transform="matrix(1 0 0 1 160.7094 335.2337)" class="st46 st21 st28"> CE1</text>
<text transform="matrix(1 0 0 1 200.1801 335.2337)" class="st42 st21 st28 st33">	</text>
<text transform="matrix(1 0 0 1 217.5824 335.2337)" class="st47 st21 st28">11</text>
<text transform="matrix(1 0 0 1 238.5277 335.2337)" class="st47 st21 st28 st26">	</text>
<text transform="matrix(1 0 0 1 264.5267 335.2337)" class="st47 st21 st28">7</text>
<text transform="matrix(1 0 0 1 273.9603 335.2337)" class="st47 st21 st28 st33">	</text>
<text transform="matrix(1 0 0 1 291.0599 335.2337)" class="st47 st21 st28">26</text>
<text transform="matrix(1 0 0 1 47.1889 366.3841)" class="st47 st21 st28 st48">	</text>
<text transform="matrix(1 0 0 1 140.9809 366.3841)" class="st21 st28">SPI</text>
<text transform="matrix(1 0 0 1 162.0492 366.3841)" class="st46 st21 st28"> CE0</text>
<text transform="matrix(1 0 0 1 200.1801 366.3841)" class="st47 st21 st28 st43">	</text>
<text transform="matrix(1 0 0 1 218.9223 366.3841)" class="st47 st21 st28">10</text>
<text transform="matrix(1 0 0 1 238.5277 366.3841)" class="st47 st21 st28 st26">	</text>
<text transform="matrix(1 0 0 1 264.7181 366.3841)" class="st47 st21 st28">8</text>
<text transform="matrix(1 0 0 1 273.9603 366.3841)" class="st47 st21 st28 st33">	</text>
<text transform="matrix(1 0 0 1 291.1146 366.3841)" class="st47 st21 st28">24</text>
<text transform="matrix(1 0 0 1 47.1889 397.534)" class="st47 st21 st28 st49">	</text>
<text transform="matrix(1 0 0 1 117.4789 397.534)" class="st21 st28">SDIO </text>
<text transform="matrix(1 0 0 1 162.0766 397.534)" class="st40 st21 st28">DAT1</text>
<text transform="matrix(1 0 0 1 200.1801 397.534)" class="st47 st21 st28 st50">	</text>
<text transform="matrix(1 0 0 1 229.4359 397.534)" class="st21 st28">6</text>
<text transform="matrix(1 0 0 1 238.5277 397.534)" class="st21 st28 st33">	</text>
<text transform="matrix(1 0 0 1 255.6127 397.534)" class="st21 st28">25</text>
<text transform="matrix(1 0 0 1 273.9603 397.534)" class="st21 st28 st33">	</text>
<text transform="matrix(1 0 0 1 290.9095 397.534)" class="st21 st28">22</text>
<text transform="matrix(1 0 0 1 47.1889 428.6834)" class="st21 st28 st36">	</text>
<text transform="matrix(1 0 0 1 143.8246 428.6834)" class="st21 st28">Ground</text>
<text transform="matrix(1 0 0 1 200.1801 428.6834)" class="st21 st28 st37">	</text>
<text transform="matrix(1 0 0 1 238.5277 428.6834)" class="st21 st28 st38">	</text>
<text transform="matrix(1 0 0 1 273.9603 428.6834)" class="st21 st28 st33">	</text>
<text transform="matrix(1 0 0 1 291.0189 428.6834)" class="st21 st28">20</text>
<text transform="matrix(1 0 0 1 47.1889 459.8338)" class="st21 st28 st51">	</text>
<text transform="matrix(1 0 0 1 118.8187 459.8338)" class="st21 st28">SDIO </text>
<text transform="matrix(1 0 0 1 163.4164 459.8338)" class="st40 st21 st28">DAT0</text>
<text transform="matrix(1 0 0 1 200.1801 459.8338)" class="st21 st28 st50">	</text>
<text transform="matrix(1 0 0 1 229.4223 459.8338)" class="st21 st28">5</text>
<text transform="matrix(1 0 0 1 238.5277 459.8338)" class="st21 st28 st33">	</text>
<text transform="matrix(1 0 0 1 255.681 459.8338)" class="st21 st28">24</text>
<text transform="matrix(1 0 0 1 273.9603 459.8338)" class="st21 st28 st32">	</text>
<text transform="matrix(1 0 0 1 289.6791 459.8338)" class="st21 st28">18</text>
<text transform="matrix(1 0 0 1 47.1889 490.9842)" class="st21 st28 st51">	</text>
<text transform="matrix(1 0 0 1 119.598 490.9842)" class="st21 st28">SDIO </text>
<text transform="matrix(1 0 0 1 164.1957 490.9842)" class="st40 st21 st28">CMD</text>
<text transform="matrix(1 0 0 1 200.1801 490.9842)" class="st21 st28 st50">	</text>
<text transform="matrix(1 0 0 1 229.4906 490.9842)" class="st21 st28">4</text>
<text transform="matrix(1 0 0 1 238.5277 490.9842)" class="st21 st28 st33">	</text>
<text transform="matrix(1 0 0 1 255.476 490.9842)" class="st21 st28">23</text>
<text transform="matrix(1 0 0 1 273.9603 490.9842)" class="st21 st28 st32">	</text>
<text transform="matrix(1 0 0 1 289.8295 490.9842)" class="st21 st28">16</text>
<text transform="matrix(1 0 0 1 47.1889 522.1337)" class="st21 st28 st36">	</text>
<text transform="matrix(1 0 0 1 143.8246 522.1337)" class="st21 st28">Ground</text>
<text transform="matrix(1 0 0 1 200.1801 522.1337)" class="st21 st28 st37">	</text>
<text transform="matrix(1 0 0 1 238.5277 522.1337)" class="st21 st28 st38">	</text>
<text transform="matrix(1 0 0 1 273.9603 522.1337)" class="st21 st28 st32">	</text>
<text transform="matrix(1 0 0 1 289.8842 522.1337)" class="st21 st28">14</text>
<text transform="matrix(1 0 0 1 47.1889 553.2841)" class="st21 st28 st52">	</text>
<text transform="matrix(1 0 0 1 136.9057 553.2841)" class="st21 st28">I</text>
<text transform="matrix(0.583 0 0 0.583 141.0482 543.9598)" class="st21 st28">2</text>
<text transform="matrix(1 0 0 1 146.4359 553.2841)" class="st21 st28">S </text>
<text transform="matrix(1 0 0 1 163.7445 553.2841)" class="st29 st21 st28">BCLK</text>
<text transform="matrix(1 0 0 1 200.1801 553.2841)" class="st21 st28 st53">	</text>
<text transform="matrix(1 0 0 1 228.0541 553.2841)" class="st21 st28">1</text>
<text transform="matrix(1 0 0 1 238.5267 553.2841)" class="st21 st28 st32">	</text>
<text transform="matrix(1 0 0 1 254.2455 553.2841)" class="st21 st28">18</text>
<text transform="matrix(1 0 0 1 273.9603 553.2841)" class="st21 st28 st32">	</text>
<text transform="matrix(1 0 0 1 289.6781 553.2841)" class="st21 st28">12</text>
<text transform="matrix(1 0 0 1 47.1889 584.4335)" class="st21 st28 st54">	</text>
<text transform="matrix(1 0 0 1 125.6137 584.4335)" class="st21 st28">UART </text>
<text transform="matrix(1 0 0 1 171.018 584.4335)" class="st55 st21 st28">RXD</text>
<text transform="matrix(1 0 0 1 200.1801 584.4335)" class="st21 st28 st43">	</text>
<text transform="matrix(1 0 0 1 218.9633 584.4335)" class="st21 st28">16</text>
<text transform="matrix(1 0 0 1 238.5277 584.4335)" class="st21 st28 st32">	</text>
<text transform="matrix(1 0 0 1 254.3822 584.4335)" class="st21 st28">15</text>
<text transform="matrix(1 0 0 1 273.9603 584.4335)" class="st21 st28 st32">	</text>
<text transform="matrix(1 0 0 1 289.7885 584.4335)" class="st21 st28">10</text>
<text transform="matrix(1 0 0 1 47.1889 615.5839)" class="st21 st28 st56">	</text>
<text transform="matrix(1 0 0 1 128.6762 615.5839)" class="st21 st28">UART </text>
<text transform="matrix(1 0 0 1 174.0805 615.5839)" class="st55 st21 st28">TXD</text>
<text transform="matrix(1 0 0 1 200.1801 615.5839)" class="st21 st28 st43">	</text>
<text transform="matrix(1 0 0 1 218.9496 615.5839)" class="st21 st28">15</text>
<text transform="matrix(1 0 0 1 238.5277 615.5839)" class="st21 st28 st32">	</text>
<text transform="matrix(1 0 0 1 254.4506 615.5839)" class="st21 st28">14</text>
<text transform="matrix(1 0 0 1 273.9603 615.5839)" class="st21 st28 st26">	</text>
<text transform="matrix(1 0 0 1 300.1517 615.5839)" class="st21 st28">8</text>
<text transform="matrix(1 0 0 1 47.1889 646.7343)" class="st21 st28 st36">	</text>
<text transform="matrix(1 0 0 1 143.8246 646.7343)" class="st21 st28">Ground</text>
<text transform="matrix(1 0 0 1 200.1801 646.7343)" class="st21 st28 st37">	</text>
<text transform="matrix(1 0 0 1 238.5277 646.7343)" class="st21 st28 st38">	</text>
<text transform="matrix(1 0 0 1 273.9603 646.7343)" class="st21 st28 st26">	</text>
<text transform="matrix(1 0 0 1 300.3021 646.7343)" class="st21 st28">6</text>
<text transform="matrix(1 0 0 1 47.1889 677.8837)" class="st21 st28 st57">	</text>
<text transform="matrix(1 0 0 1 181.0121 677.8837)" class="st21 st28">5V</text>
<text transform="matrix(1 0 0 1 200.1801 677.8837)" class="st21 st28 st37">	</text>
<text transform="matrix(1 0 0 1 238.5277 677.8837)" class="st21 st28 st38">	</text>
<text transform="matrix(1 0 0 1 273.9603 677.8837)" class="st21 st28 st26">	</text>
<text transform="matrix(1 0 0 1 300.3568 677.8837)" class="st21 st28">4</text>
<text transform="matrix(1 0 0 1 47.1889 709.0341)" class="st21 st28 st57">	</text>
<text transform="matrix(1 0 0 1 181.0121 709.0341)" class="st21 st28">5V</text>
<text transform="matrix(1 0 0 1 200.1801 709.0341)" class="st21 st28 st37">	</text>
<text transform="matrix(1 0 0 1 238.5277 709.0341)" class="st21 st28 st38">	</text>
<text transform="matrix(1 0 0 1 273.9603 709.0341)" class="st21 st28 st26">	</text>
<text transform="matrix(1 0 0 1 300.1517 709.0341)" class="st21 st28">2</text>
<circle class="st7" cx="351.5" cy="702.7" r="11.3"/>
<text transform="matrix(0.583 0 0 0.583 511.4488 773.6968)"><tspan x="0" y="0" class="st21 st58">Raspberry</tspan><tspan x="157.7" y="20.6" class="st21 st59"> </tspan><tspan x="165.6" y="0" class="st21 st58">Pi</tspan><tspan x="193.8" y="0" class="st60 st21 st58">3</tspan><tspan x="213.6" y="0" class="st21 st58"> GPIO</tspan></text>
<text transform="matrix(0.583 0 0 0.583 38.1889 752.0084)"><tspan x="0" y="0" class="st21 st61">On boot:</tspan><tspan x="90.4" y="0" class="st21 st61 st62">	</tspan><tspan x="95.3" y="0" class="st21 st61">#BCM </tspan><tspan x="166.8" y="0" class="st47 st21 st61">2-8</tspan><tspan x="199.3" y="0" class="st21 st61 st63">	</tspan><tspan x="218.4" y="0" class="st21 st61">-</tspan><tspan x="227.2" y="0" class="st31 st21 st61">	</tspan><tspan x="239.2" y="0" class="st31 st21 st61">3.3V</tspan><tspan x="282.9" y="0" class="st31 st21 st61 st64">	</tspan><tspan x="297.6" y="0" class="st21 st61">pullup input</tspan><tspan x="0" y="34.3" class="st31 st21 st61 st65">	</tspan><tspan x="95.3" y="34.3" class="st31 st21 st61">#BCM 9-27</tspan><tspan x="211.2" y="34.3" class="st31 st21 st61 st66">	</tspan><tspan x="218.4" y="34.3" class="st31 st21 st61">-</tspan><tspan x="227.2" y="34.3" class="st31 st21 st61 st67">	</tspan><tspan x="258.3" y="34.3" class="st31 st21 st61">0V</tspan><tspan x="282.9" y="34.3" class="st31 st21 st61 st64">	</tspan><tspan x="297.6" y="34.3" class="st31 st21 st61">pulldown input</tspan><tspan x="0" y="68.6" class="st68 st21 st61">RPi.GPIO supports #BCM 2-27</tspan></text>
<rect x="417.5" y="76.9" class="st20" width="297.6" height="648.8"/>
<text transform="matrix(1 0 0 1 417.528 87.2151)" class="st21 st22">J8</text>
<text transform="matrix(1 0 0 1 429.8737 87.2151)" class="st21 st22 st26">	</text>
<text transform="matrix(1 0 0 1 452.9611 87.2151)" class="st21 st22">BCM</text>
<text transform="matrix(1 0 0 1 478.3703 87.2151)" class="st21 st22 st25">	</text>
<text transform="matrix(1 0 0 1 488.3942 87.2151)" class="st21 st22">wPi</text>
<text transform="matrix(1 0 0 1 507.1588 87.2151)" class="st21 st22 st43">	</text>
<text transform="matrix(1 0 0 1 523.8273 87.2151)" class="st21 st22">Function</text>
<text transform="matrix(1 0 0 1 417.528 118.365)" class="st21 st28">39</text>
<text transform="matrix(1 0 0 1 435.862 118.365)" class="st21 st28 st33">	</text>
<text transform="matrix(1 0 0 1 452.9611 118.365)" class="st21 st28 st38">		</text>
<text transform="matrix(1 0 0 1 523.8273 118.365)" class="st21 st28">Ground</text>
<text transform="matrix(1 0 0 1 417.528 149.5149)" class="st21 st28">37</text>
<text transform="matrix(1 0 0 1 436.2038 149.5149)" class="st21 st28 st33">	</text>
<text transform="matrix(1 0 0 1 452.9611 149.5149)" class="st21 st28">26</text>
<text transform="matrix(1 0 0 1 471.2951 149.5149)" class="st21 st28 st33">	</text>
<text transform="matrix(1 0 0 1 488.3942 149.5149)" class="st21 st28">25</text>
<text transform="matrix(1 0 0 1 506.7419 149.5149)" class="st21 st28 st33">	</text>
<text transform="matrix(1 0 0 1 523.8273 149.5149)" class="st21 st28">SDIO </text>
<text transform="matrix(1 0 0 1 568.425 149.5149)" class="st40 st21 st28">DAT2</text>
<text transform="matrix(1 0 0 1 417.528 180.6648)" class="st21 st28">35</text>
<text transform="matrix(1 0 0 1 435.8756 180.6648)" class="st21 st28 st33">	</text>
<text transform="matrix(1 0 0 1 452.9611 180.6648)" class="st21 st28">19</text>
<text transform="matrix(1 0 0 1 472.5255 180.6648)" class="st21 st28 st32">	</text>
<text transform="matrix(1 0 0 1 488.3942 180.6648)" class="st21 st28">24</text>
<text transform="matrix(1 0 0 1 506.6735 180.6648)" class="st21 st28 st33">	</text>
<text transform="matrix(1 0 0 1 523.8273 180.6648)" class="st21 st28">I</text>
<text transform="matrix(0.583 0 0 0.583 527.9699 171.3411)" class="st21 st28">2</text>
<text transform="matrix(1 0 0 1 533.3581 180.6648)" class="st21 st28">S </text>
<text transform="matrix(1 0 0 1 550.6667 180.6648)" class="st29 st21 st28">LRCLK</text>
<text transform="matrix(1 0 0 1 417.528 211.8152)" class="st21 st28">33</text>
<text transform="matrix(1 0 0 1 436.0124 211.8152)" class="st21 st28 st33">	</text>
<text transform="matrix(1 0 0 1 452.9611 211.8152)" class="st21 st28">13</text>
<text transform="matrix(1 0 0 1 472.6759 211.8152)" class="st21 st28 st32">	</text>
<text transform="matrix(1 0 0 1 488.3942 211.8152)" class="st21 st28">23</text>
<text transform="matrix(1 0 0 1 506.8786 211.8152)" class="st21 st28 st33">	</text>
<text transform="matrix(1 0 0 1 523.8273 211.8152)" class="st40 st21 st28">PWM1</text>
<text transform="matrix(1 0 0 1 417.528 242.9651)" class="st47 st21 st28">31</text>
<text transform="matrix(1 0 0 1 437.2428 242.9651)" class="st47 st21 st28 st32">	</text>
<text transform="matrix(1 0 0 1 452.9611 242.9651)" class="st47 st21 st28">6</text>
<text transform="matrix(1 0 0 1 462.0529 242.9651)" class="st47 st21 st28 st26">	</text>
<text transform="matrix(1 0 0 1 488.3942 242.9651)" class="st47 st21 st28">22</text>
<text transform="matrix(1 0 0 1 506.8786 242.9651)" class="st47 st21 st28 st33">	</text>
<text transform="matrix(1 0 0 1 523.8273 242.9651)" class="st21 st28 st69">	</text>
<text transform="matrix(1 0 0 1 526.7131 242.9651)" class="st40 st21 st28">GPCLK2</text>
<text transform="matrix(1 0 0 1 417.528 274.1151)" class="st47 st21 st28">29</text>
<text transform="matrix(1 0 0 1 435.862 274.1151)" class="st47 st21 st28 st33">	</text>
<text transform="matrix(1 0 0 1 452.9611 274.1151)" class="st47 st21 st28">5</text>
<text transform="matrix(1 0 0 1 462.0666 274.1151)" class="st47 st21 st28 st26">	</text>
<text transform="matrix(1 0 0 1 488.3942 274.1151)" class="st47 st21 st28">21</text>
<text transform="matrix(1 0 0 1 508.109 274.1151)" class="st47 st21 st28 st32">	</text>
<text transform="matrix(1 0 0 1 523.8273 274.1151)" class="st21 st28 st69">	</text>
<text transform="matrix(1 0 0 1 526.7131 274.1151)" class="st40 st21 st28">GPCLK1</text>
<text transform="matrix(1 0 0 1 417.528 305.265)" class="st42 st21 st28">27</text>
<text transform="matrix(1 0 0 1 436.2038 305.265)" class="st42 st21 st28 st33">	</text>
<text transform="matrix(1 0 0 1 452.9611 305.265)" class="st42 st21 st28">0</text>
<text transform="matrix(1 0 0 1 462.0939 305.265)" class="st42 st21 st28 st26">	</text>
<text transform="matrix(1 0 0 1 488.3942 305.265)" class="st42 st21 st28">30</text>
<text transform="matrix(1 0 0 1 506.7692 305.265)" class="st21 st28 st33">	</text>
<text transform="matrix(1 0 0 1 523.8273 305.265)" class="st21 st28">I</text>
<text transform="matrix(0.583 0 0 0.583 527.9699 295.9412)" class="st21 st28">2</text>
<text transform="matrix(1 0 0 1 533.3581 305.265)" class="st21 st28">C </text>
<text transform="matrix(1 0 0 1 554.4538 305.265)" class="st42 st21 st28">SDA EEPROM</text>
<text transform="matrix(1 0 0 1 417.528 336.4149)" class="st21 st28">25</text>
<text transform="matrix(1 0 0 1 435.8756 336.4149)" class="st21 st28 st33">	</text>
<text transform="matrix(1 0 0 1 452.9611 336.4149)" class="st21 st28 st38">		</text>
<text transform="matrix(1 0 0 1 523.8273 336.4149)" class="st21 st28">Ground</text>
<text transform="matrix(1 0 0 1 417.528 367.5652)" class="st21 st28">23</text>
<text transform="matrix(1 0 0 1 436.0124 367.5652)" class="st21 st28 st33">	</text>
<text transform="matrix(1 0 0 1 452.9611 367.5652)" class="st21 st28">11</text>
<text transform="matrix(1 0 0 1 473.9064 367.5652)" class="st21 st28 st70">	</text>
<text transform="matrix(1 0 0 1 488.3942 367.5652)" class="st21 st28">14</text>
<text transform="matrix(1 0 0 1 507.904 367.5652)" class="st21 st28 st32">	</text>
<text transform="matrix(1 0 0 1 523.8273 367.5652)" class="st21 st28">SPI</text>
<text transform="matrix(1 0 0 1 544.8957 367.5652)" class="st46 st21 st28"> SCLK</text>
<text transform="matrix(1 0 0 1 417.528 398.7151)" class="st21 st28">21</text>
<text transform="matrix(1 0 0 1 437.2428 398.7151)" class="st21 st28 st32">	</text>
<text transform="matrix(1 0 0 1 452.9611 398.7151)" class="st21 st28">9</text>
<text transform="matrix(1 0 0 1 462.0529 398.7151)" class="st21 st28 st26">	</text>
<text transform="matrix(1 0 0 1 488.3942 398.7151)" class="st21 st28">13</text>
<text transform="matrix(1 0 0 1 508.109 398.7151)" class="st21 st28 st32">	</text>
<text transform="matrix(1 0 0 1 523.8273 398.7151)" class="st21 st28">SPI</text>
<text transform="matrix(1 0 0 1 544.8957 398.7151)" class="st46 st21 st28"> MISO</text>
<text transform="matrix(1 0 0 1 417.528 429.8646)" class="st21 st28">19</text>
<text transform="matrix(1 0 0 1 437.0924 429.8646)" class="st21 st28 st32">	</text>
<text transform="matrix(1 0 0 1 452.9611 429.8646)" class="st21 st28">10</text>
<text transform="matrix(1 0 0 1 472.5666 429.8646)" class="st21 st28 st32">	</text>
<text transform="matrix(1 0 0 1 488.3942 429.8646)" class="st21 st28">12</text>
<text transform="matrix(1 0 0 1 508.109 429.8646)" class="st21 st28 st32">	</text>
<text transform="matrix(1 0 0 1 523.8273 429.8646)" class="st21 st28">SPI</text>
<text transform="matrix(1 0 0 1 544.8957 429.8646)" class="st46 st21 st28"> MOSI</text>
<text transform="matrix(1 0 0 1 417.528 461.015)" class="st21 st28">17</text>
<text transform="matrix(1 0 0 1 437.4342 461.015)" class="st21 st28 st32">	</text>
<text transform="matrix(1 0 0 1 452.9611 461.015)" class="st21 st28 st38">		</text>
<text transform="matrix(1 0 0 1 523.8273 461.015)" class="st21 st28">3.3V</text>
<text transform="matrix(1 0 0 1 417.528 492.1653)" class="st21 st28">15</text>
<text transform="matrix(1 0 0 1 437.1061 492.1653)" class="st21 st28 st32">	</text>
<text transform="matrix(1 0 0 1 452.9611 492.1653)" class="st21 st28">22</text>
<text transform="matrix(1 0 0 1 471.4455 492.1653)" class="st21 st28 st33">	</text>
<text transform="matrix(1 0 0 1 488.3942 492.1653)" class="st21 st28">3</text>
<text transform="matrix(1 0 0 1 497.6364 492.1653)" class="st21 st28 st26">	</text>
<text transform="matrix(1 0 0 1 523.8273 492.1653)" class="st21 st28">SDIO </text>
<text transform="matrix(1 0 0 1 568.425 492.1653)" class="st40 st21 st28">CLK</text>
<text transform="matrix(1 0 0 1 417.528 523.3148)" class="st21 st28">13</text>
<text transform="matrix(1 0 0 1 437.2428 523.3148)" class="st21 st28 st32">	</text>
<text transform="matrix(1 0 0 1 452.9611 523.3148)" class="st21 st28">27</text>
<text transform="matrix(1 0 0 1 471.6369 523.3148)" class="st21 st28 st33">	</text>
<text transform="matrix(1 0 0 1 488.3942 523.3148)" class="st21 st28">2</text>
<text transform="matrix(1 0 0 1 497.6364 523.3148)" class="st21 st28 st26">	</text>
<text transform="matrix(1 0 0 1 523.8273 523.3148)" class="st21 st28">SDIO </text>
<text transform="matrix(1 0 0 1 568.425 523.3148)" class="st40 st21 st28">DAT3</text>
<text transform="matrix(1 0 0 1 417.528 554.4651)" class="st21 st28">11</text>
<text transform="matrix(1 0 0 1 438.4733 554.4651)" class="st21 st28 st70">	</text>
<text transform="matrix(1 0 0 1 452.9611 554.4651)" class="st21 st28">17</text>
<text transform="matrix(1 0 0 1 472.8673 554.4651)" class="st21 st28 st32">	</text>
<text transform="matrix(1 0 0 1 488.3942 554.4651)" class="st21 st28">0</text>
<text transform="matrix(1 0 0 1 417.528 585.6146)" class="st21 st28">9</text>
<text transform="matrix(1 0 0 1 426.6198 585.6146)" class="st21 st28 st26">	</text>
<text transform="matrix(1 0 0 1 452.9611 585.6146)" class="st21 st28 st38">		</text>
<text transform="matrix(1 0 0 1 523.8273 585.6146)" class="st21 st28">Ground</text>
<text transform="matrix(1 0 0 1 417.528 616.765)" class="st47 st21 st28">7</text>
<text transform="matrix(1 0 0 1 426.9616 616.765)" class="st47 st21 st28 st26">	</text>
<text transform="matrix(1 0 0 1 452.9611 616.765)" class="st47 st21 st28">4</text>
<text transform="matrix(1 0 0 1 461.9982 616.765)" class="st47 st21 st28 st26">	</text>
<text transform="matrix(1 0 0 1 488.3942 616.765)" class="st47 st21 st28">7</text>
<text transform="matrix(1 0 0 1 497.8278 616.765)" class="st47 st21 st28 st26">	</text>
<text transform="matrix(1 0 0 1 523.8273 616.765)" class="st21 st28 st69">	</text>
<text transform="matrix(1 0 0 1 526.7131 616.765)" class="st40 st21 st28">GPCLK0</text>
<text transform="matrix(1 0 0 1 417.528 647.9153)" class="st47 st21 st28">5</text>
<text transform="matrix(1 0 0 1 426.6335 647.9153)" class="st47 st21 st28 st26">	</text>
<text transform="matrix(1 0 0 1 452.9611 647.9153)" class="st47 st21 st28">3</text>
<text transform="matrix(1 0 0 1 462.2033 647.9153)" class="st47 st21 st28 st26">	</text>
<text transform="matrix(1 0 0 1 488.3942 647.9153)" class="st47 st21 st28">9</text>
<text transform="matrix(1 0 0 1 497.486 647.9153)" class="st47 st21 st28 st26">	</text>
<text transform="matrix(1 0 0 1 523.8273 647.9153)" class="st21 st28 st69">	</text>
<text transform="matrix(1 0 0 1 526.7131 647.9153)" class="st21 st28">I</text>
<text transform="matrix(0.583 0 0 0.583 530.8557 638.5911)" class="st21 st28">2</text>
<text transform="matrix(1 0 0 1 536.2438 647.9153)" class="st21 st28">C </text>
<text transform="matrix(1 0 0 1 557.3395 647.9153)" class="st71 st21 st28">SCL</text>
<text transform="matrix(1 0 0 1 417.528 679.0648)" class="st47 st21 st28">3</text>
<text transform="matrix(1 0 0 1 426.7702 679.0648)" class="st47 st21 st28 st26">	</text>
<text transform="matrix(1 0 0 1 452.9611 679.0648)" class="st47 st21 st28">2</text>
<text transform="matrix(1 0 0 1 462.2033 679.0648)" class="st47 st21 st28 st26">	</text>
<text transform="matrix(1 0 0 1 488.3942 679.0648)" class="st47 st21 st28">8</text>
<text transform="matrix(1 0 0 1 497.6364 679.0648)" class="st47 st21 st28 st26">	</text>
<text transform="matrix(1 0 0 1 523.8273 679.0648)" class="st21 st28 st69">	</text>
<text transform="matrix(1 0 0 1 526.7131 679.0648)" class="st21 st28">I</text>
<text transform="matrix(0.583 0 0 0.583 530.8557 669.7415)" class="st21 st28">2</text>
<text transform="matrix(1 0 0 1 536.2438 679.0648)" class="st21 st28">C </text>
<text transform="matrix(1 0 0 1 557.3395 679.0648)" class="st71 st21 st28">SDA</text>
<text transform="matrix(1 0 0 1 417.528 710.2151)" class="st21 st28">1</text>
<text transform="matrix(1 0 0 1 428.0006 710.2151)" class="st21 st28 st44">	</text>
<text transform="matrix(1 0 0 1 452.9611 710.2151)" class="st21 st28 st38">		</text>
<text transform="matrix(1 0 0 1 523.8273 710.2151)" class="st21 st28">3.3V</text>
<circle class="st72" cx="351.5" cy="328.6" r="4.3"/>
<circle class="st72" cx="351.5" cy="359.7" r="4.3"/>
<circle class="st72" cx="382.7" cy="235" r="4.3"/>
<circle class="st72" cx="382.7" cy="266.2" r="4.3"/>
<circle class="st72" cx="382.7" cy="609.2" r="4.3"/>
<circle class="st72" cx="382.7" cy="640.4" r="4.3"/>
<circle class="st72" cx="382.7" cy="671.5" r="4.3"/>
<g>
	<path d="M480.8,739.9c-0.2,0-0.5,0.1-0.8,0.3c-0.7-0.3-1.4-0.4-2.1,0.2c-1-0.1-1.3,0.1-1.5,0.4c-0.2,0-1.6-0.2-2.2,0.7
		c-1.6-0.2-2.1,0.9-1.5,2c-0.3,0.5-0.7,1,0.1,2c-0.3,0.5-0.1,1.1,0.5,1.8c-0.2,0.8,0.2,1.3,0.8,1.7c-0.1,1,0.9,1.6,1.3,1.8
		c0.1,0.6,0.4,1.2,1.6,1.5c0.2,0.9,0.9,1.1,1.6,1.2c-2.3,1.4-4.3,3.1-4.3,7.5l-0.3,0.6c-2.7,1.6-5.1,6.8-1.3,11.1
		c0.2,1.3,0.7,2.3,1,3.3c0.5,4.3,4.1,6.2,5.1,6.5c1.4,1.1,2.9,2.1,4.8,2.8c1.9,1.9,3.9,2.7,6,2.7c0,0,4.2-0.7,6-2.7
		c2-0.7,3.5-1.7,4.8-2.8c0.9-0.2,4.5-2.2,5.1-6.5c0.4-1.1,0.8-2,1-3.3c3.8-4.2,1.4-9.5-1.3-11.1l-0.3-0.6c0-4.4-2-6.1-4.3-7.5
		c0.7-0.2,1.4-0.3,1.6-1.2c1.2-0.3,1.5-0.9,1.6-1.5c0.3-0.2,1.4-0.8,1.3-1.8c0.6-0.4,0.9-0.9,0.8-1.7c0.6-0.7,0.8-1.3,0.5-1.8
		c0.8-1,0.4-1.5,0.1-2c0.6-1.1,0.1-2.2-1.5-2c-0.6-1-2-0.7-2.2-0.7c-0.2-0.3-0.6-0.6-1.5-0.4c-0.6-0.6-1.3-0.5-2.1-0.2
		c-0.9-0.7-1.4-0.1-2.1,0.1c-1-0.3-1.3,0.1-1.8,0.3c-1.1-0.2-1.5,0.3-2,0.8l-0.6,0c-1.7,1-2.6,3.1-2.9,4.1c-0.3-1.1-1.2-3.1-2.9-4.1
		l-0.6,0c-0.5-0.6-0.9-1.1-2-0.8c-0.5-0.2-0.8-0.7-1.8-0.3C481.7,740.2,481.3,739.9,480.8,739.9"/>
	<path class="st73" d="M477.4,744.4c4.6,2.4,7.2,4.3,8.7,5.9c-0.7,3-4.6,3.1-6.1,3c0.3-0.1,0.5-0.3,0.6-0.5c-0.4-0.3-1.6,0-2.5-0.5
		c0.3-0.1,0.5-0.1,0.7-0.4c-0.8-0.3-1.7-0.5-2.3-0.9c0.3,0,0.6,0.1,0.9-0.2c-0.7-0.4-1.5-0.7-2.2-1.3c0.4,0,0.8,0,0.9-0.1
		c-0.7-0.4-1.3-0.9-1.7-1.4c0.5,0.1,0.8,0,0.9-0.1c-0.5-0.5-1.2-1-1.5-1.6c0.4,0.1,0.8,0.2,1,0c-0.2-0.4-0.9-0.6-1.4-1.6
		c0.4,0,0.9,0.1,1,0c-0.2-0.8-0.5-1.3-0.9-1.7c0.9,0,2.3,0,2.2-0.1l-0.6-0.6c0.9-0.2,1.8,0,2.4,0.2c0.3-0.2,0-0.5-0.4-0.8
		c0.8,0.1,1.4,0.3,2,0.5c0.3-0.3-0.2-0.6-0.5-0.9c1.2,0.2,1.7,0.5,2.1,0.8c0.4-0.3,0-0.6-0.2-0.9c0.9,0.3,1.3,0.7,1.8,1.2
		c0.2-0.2,0.4-0.4,0.1-0.9c0.6,0.4,1.1,0.8,1.4,1.3c0.4-0.2,0.2-0.6,0.2-0.9c0.6,0.5,1.1,1.1,1.6,1.6c0.1-0.1,0.2-0.3,0.3-0.7
		c1.5,1.5,3.7,5.3,0.6,6.8C484.1,747.2,480.9,745.6,477.4,744.4L477.4,744.4"/>
	<path class="st73" d="M501.7,744.4c-4.6,2.4-7.2,4.3-8.7,5.9c0.7,3,4.6,3.1,6.1,3c-0.3-0.1-0.5-0.3-0.6-0.5c0.4-0.3,1.6,0,2.5-0.5
		c-0.3-0.1-0.5-0.1-0.7-0.4c0.8-0.3,1.7-0.5,2.3-0.9c-0.3,0-0.6,0.1-0.9-0.2c0.7-0.4,1.5-0.7,2.2-1.3c-0.4,0-0.8,0-0.9-0.1
		c0.7-0.4,1.3-0.9,1.7-1.4c-0.5,0.1-0.8,0-0.9-0.1c0.5-0.5,1.2-1,1.5-1.6c-0.4,0.1-0.8,0.2-1,0c0.2-0.4,0.9-0.6,1.4-1.6
		c-0.4,0-0.9,0.1-1,0c0.2-0.8,0.5-1.3,0.9-1.7c-0.9,0-2.3,0-2.2-0.1l0.6-0.6c-0.9-0.2-1.8,0-2.4,0.2c-0.3-0.2,0-0.5,0.4-0.8
		c-0.8,0.1-1.4,0.3-2,0.5c-0.3-0.3,0.2-0.6,0.5-0.9c-1.2,0.2-1.7,0.5-2.1,0.8c-0.4-0.3,0-0.6,0.2-0.9c-0.9,0.3-1.3,0.7-1.8,1.2
		c-0.2-0.2-0.4-0.4-0.1-0.9c-0.6,0.4-1.1,0.8-1.4,1.3c-0.4-0.2-0.2-0.6-0.2-0.9c-0.6,0.5-1.1,1.1-1.6,1.6c-0.1-0.1-0.2-0.3-0.3-0.7
		c-1.5,1.5-3.7,5.3-0.6,6.8C494.9,747.2,498.1,745.6,501.7,744.4L501.7,744.4"/>
	<path class="st74" d="M495.1,774.8c0,2.8-2.4,5.1-5.5,5.1c-3,0-5.5-2.2-5.5-5c0,0,0,0,0-0.1c0-2.8,2.4-5.1,5.5-5.1
		C492.6,769.7,495,772,495.1,774.8L495.1,774.8"/>
	<path class="st74" d="M486.4,760.4c2.3,1.5,2.7,4.9,0.9,7.5c-1.8,2.7-5,3.6-7.3,2.1c-2.3-1.5-2.7-4.9-0.9-7.5
		C480.9,759.9,484.1,758.9,486.4,760.4"/>
	<path class="st74" d="M492.5,760.1c-2.3,1.5-2.7,4.9-0.9,7.5c1.8,2.7,5,3.6,7.3,2.1c2.3-1.5,2.7-4.9,0.9-7.5
		C498.1,759.6,494.8,758.6,492.5,760.1"/>
	<path class="st74" d="M475.1,762.8c2.5-0.7,0.8,10.1-1.2,9.3C471.7,770.3,471,765.1,475.1,762.8"/>
	<path class="st74" d="M503.4,762.7c-2.5-0.7-0.8,10.1,1.2,9.3C506.7,770.2,507.5,765,503.4,762.7"/>
	<path class="st74" d="M495.1,754.6c4.2-0.7,7.8,1.8,7.6,6.4C502.5,762.8,493.5,754.9,495.1,754.6"/>
	<path class="st74" d="M483.4,754.5c-4.2-0.7-7.8,1.8-7.6,6.4C475.9,762.7,484.9,754.8,483.4,754.5"/>
	<path class="st74" d="M489.4,753.4c-2.5-0.1-4.9,1.9-5,3c0,1.4,2,2.8,5,2.8c3,0,5-1.1,5-2.5C494.5,755.1,491.7,753.4,489.4,753.4
		L489.4,753.4"/>
	<path class="st74" d="M489.6,781.5c2.2-0.1,5.2,0.7,5.2,1.8c0,1-2.7,3.4-5.3,3.3c-2.7,0.1-5.4-2.2-5.4-3
		C484.1,782.4,487.4,781.4,489.6,781.5"/>
	<path class="st74" d="M481.5,775.1c1.6,1.9,2.3,5.2,1,6.2c-1.2,0.7-4.2,0.4-6.4-2.6c-1.4-2.6-1.3-5.2-0.2-6
		C477.3,771.8,479.7,773.1,481.5,775.1L481.5,775.1"/>
	<path class="st74" d="M497.4,774.5c-1.7,2-2.6,5.6-1.4,6.8c1.2,0.9,4.4,0.8,6.7-2.5c1.7-2.2,1.1-5.8,0.2-6.8
		C501.4,770.9,499.4,772.4,497.4,774.5L497.4,774.5"/>
</g>
</svg>
