<?xml version="1.0" encoding="utf-8"?>
<!-- Generator: Adobe Illustrator 19.2.1, SVG Export Plug-In . SVG Version: 6.00 Build 0)  -->
<svg version="1.1" id="Background_xA0_Image_1_" xmlns="http://www.w3.org/2000/svg" xmlns:xlink="http://www.w3.org/1999/xlink"
	 x="0px" y="0px" viewBox="0 0 732 822.4" style="enable-background:new 0 0 732 822.4;" xml:space="preserve">
<style type="text/css">
	.st0{opacity:0.1;}
	.st1{opacity:0.2;fill:#00FF00;}
	.st2{fill:#D6FFFF;}
	.st3{fill:#FFBF55;}
	.st4{fill:#B3B3B3;}
	.st5{fill:#FF9FAA;}
	.st6{fill:#808080;stroke:#000000;stroke-miterlimit:10;}
	.st7{fill:#FF0000;stroke:#000000;stroke-miterlimit:10;}
	.st8{stroke:#000000;stroke-miterlimit:10;}
	.st9{fill:#7F00FF;stroke:#000000;stroke-miterlimit:10;}
	.st10{fill:#2A1FFF;stroke:#000000;stroke-miterlimit:10;}
	.st11{fill:#00FF00;stroke:#000000;stroke-miterlimit:10;}
	.st12{fill:#FF00FF;stroke:#231F20;stroke-miterlimit:10;}
	.st13{fill:#999999;stroke:#000000;stroke-miterlimit:10;}
	.st14{fill:#0000FF;stroke:#000000;stroke-miterlimit:10;}
	.st15{fill:#00FFFF;stroke:#231F20;stroke-miterlimit:10;}
	.st16{fill:#00FF00;stroke:#231F20;stroke-miterlimit:10;}
	.st17{fill:#FF5F00;stroke:#000000;stroke-miterlimit:10;}
	.st18{fill:#FF00FF;stroke:#000000;stroke-miterlimit:10;}
	.st19{fill:none;stroke:#000000;stroke-width:2;stroke-miterlimit:10;}
	.st20{fill:none;}
	.st21{fill:#0071BC;}
	.st22{font-family:'DSNKamonBold75';}
	.st23{font-size:21px;}
	.st24{letter-spacing:135;}
	.st25{letter-spacing:9;}
	.st26{letter-spacing:2;}
	.st27{letter-spacing:16;}
	.st28{font-size:28px;}
	.st29{letter-spacing:147;}
	.st30{letter-spacing:25;}
	.st31{letter-spacing:15;}
	.st32{letter-spacing:121;}
	.st33{fill:#FF7F00;}
	.st34{letter-spacing:124;}
	.st35{letter-spacing:123;}
	.st36{fill:#009245;}
	.st37{letter-spacing:125;}
	.st38{letter-spacing:181;}
	.st39{letter-spacing:6;}
	.st40{letter-spacing:5;}
	.st41{letter-spacing:100;}
	.st42{letter-spacing:7;}
	.st43{letter-spacing:109;}
	.st44{letter-spacing:113;}
	.st45{fill:#FF00FF;}
	.st46{letter-spacing:115;}
	.st47{letter-spacing:52;}
	.st48{fill:#808080;}
	.st49{letter-spacing:122;}
	.st50{letter-spacing:111;}
	.st51{fill:#0000FF;}
	.st52{fill:#7F00FF;}
	.st53{font-size:36px;}
	.st54{letter-spacing:-6.9;}
	.st55{letter-spacing:6.9;}
	.st56{fill:#231F20;}
	.st57{letter-spacing:1.7;}
	.st58{letter-spacing:82.3;}
	.st59{letter-spacing:-3.4;}
	.st60{letter-spacing:18.9;}
	.st61{fill:#606060;}
	.st62{fill:#FF7F00;stroke:#231F20;stroke-width:0.5;stroke-miterlimit:10;}
	.st63{font-size:60px;}
	.st64{font-size:24px;}
	.st65{fill:#666666;}
	.st66{fill:#75A928;}
	.st67{fill:#BC1142;}
</style>
<rect x="487.6" y="85" class="st0" width="34" height="652"/>
<rect x="218.1" y="85" class="st0" width="34" height="652"/>
<rect x="450.7" y="85" class="st1" width="36.9" height="652"/>
<rect x="252.3" y="85" class="st1" width="36.9" height="652"/>
<rect x="36.9" y="520.2" class="st2" width="292" height="31.2"/>
<rect x="405.4" y="520.2" class="st2" width="292" height="31.2"/>
<rect x="36.9" y="364.3" class="st3" width="292" height="31.2"/>
<rect x="36.9" y="239.5" class="st4" width="292" height="31.2"/>
<rect x="36.9" y="489" class="st4" width="292" height="31.2"/>
<rect x="36.9" y="707.2" class="st4" width="292" height="31.2"/>
<rect x="36.9" y="114.8" class="st3" width="292" height="31.2"/>
<rect x="405.4" y="114.8" class="st5" width="292" height="31.2"/>
<rect x="405.4" y="146" class="st5" width="292" height="31.2"/>
<rect x="405.4" y="177.2" class="st4" width="292" height="31.2"/>
<rect x="405.4" y="301.9" class="st4" width="292" height="31.2"/>
<rect x="405.4" y="395.4" class="st4" width="292" height="31.2"/>
<rect x="405.4" y="551.3" class="st4" width="292" height="31.2"/>
<rect x="405.4" y="613.7" class="st4" width="292" height="31.2"/>
<path class="st6" d="M396.9,744.1h-59.5c-4.7,0-8.5-3.8-8.5-8.5V116.2c0-4.7,3.8-8.5,8.5-8.5h59.5c4.7,0,8.5,3.8,8.5,8.5v619.4
	C405.4,740.3,401.5,744.1,396.9,744.1z"/>
<circle class="st7" cx="382.7" cy="161.6" r="11.3"/>
<circle class="st8" cx="382.7" cy="192.8" r="11.3"/>
<circle class="st9" cx="382.7" cy="223.9" r="11.3"/>
<circle class="st9" cx="382.7" cy="255.1" r="11.3"/>
<circle class="st10" cx="382.7" cy="286.3" r="11.3"/>
<circle class="st8" cx="382.7" cy="317.5" r="11.3"/>
<circle class="st11" cx="382.7" cy="348.7" r="11.3"/>
<circle class="st11" cx="382.7" cy="379.8" r="11.3"/>
<circle class="st8" cx="382.7" cy="411" r="11.3"/>
<circle class="st11" cx="382.7" cy="442.2" r="11.3"/>
<circle class="st12" cx="382.7" cy="473.4" r="11.3"/>
<circle class="st12" cx="382.7" cy="504.6" r="11.3"/>
<circle class="st13" cx="382.7" cy="535.7" r="11.3"/>
<circle class="st8" cx="382.7" cy="566.9" r="11.3"/>
<circle class="st11" cx="382.7" cy="598.1" r="11.3"/>
<circle class="st8" cx="382.7" cy="629.3" r="11.3"/>
<circle class="st11" cx="382.7" cy="660.5" r="11.3"/>
<circle class="st14" cx="382.7" cy="691.7" r="11.3"/>
<circle class="st10" cx="382.7" cy="722.8" r="11.3"/>
<circle class="st15" cx="351.5" cy="161.6" r="11.3"/>
<circle class="st15" cx="351.5" cy="192.8" r="11.3"/>
<circle class="st16" cx="351.5" cy="223.9" r="11.3"/>
<circle class="st8" cx="351.5" cy="255.1" r="11.3"/>
<circle class="st11" cx="351.5" cy="286.3" r="11.3"/>
<circle class="st11" cx="351.5" cy="317.5" r="11.3"/>
<circle class="st11" cx="351.5" cy="348.7" r="11.3"/>
<circle class="st17" cx="351.5" cy="379.8" r="11.3"/>
<circle class="st18" cx="351.5" cy="411" r="11.3"/>
<circle class="st18" cx="351.5" cy="442.2" r="11.3"/>
<circle class="st18" cx="351.5" cy="473.4" r="11.3"/>
<circle class="st8" cx="351.5" cy="504.6" r="11.3"/>
<circle class="st13" cx="351.5" cy="535.7" r="11.3"/>
<circle class="st16" cx="351.5" cy="566.9" r="11.3"/>
<circle class="st16" cx="351.5" cy="598.1" r="11.3"/>
<circle class="st11" cx="351.5" cy="629.3" r="11.3"/>
<circle class="st10" cx="351.5" cy="660.5" r="11.3"/>
<circle class="st11" cx="351.5" cy="691.7" r="11.3"/>
<circle class="st8" cx="351.5" cy="722.8" r="11.3"/>
<path class="st17" d="M360,141.7h-17c-1.6,0-2.8-1.3-2.8-2.8v-17c0-1.6,1.3-2.8,2.8-2.8h17c1.6,0,2.8,1.3,2.8,2.8v17
	C362.8,140.5,361.6,141.7,360,141.7z"/>
<circle class="st19" cx="367.1" cy="66.6" r="18.4"/>
<circle class="st19" cx="367.1" cy="780.9" r="18.4"/>
<path class="st19" d="M411.8,803.6V73c0-24-19.5-43.5-43.5-43.5H42.5"/>
<rect x="22.7" y="96.4" class="st20" width="297.6" height="648.8"/>
<text transform="matrix(1 0 0 1 22.6771 106.731)" class="st21 st22 st23 st24">	</text>
<text transform="matrix(1 0 0 1 165.638 106.731)" class="st22 st23">Function</text>
<text transform="matrix(1 0 0 1 214.0159 106.731)" class="st22 st23 st25">	</text>
<text transform="matrix(1 0 0 1 230.6839 106.731)" class="st22 st23">wPi</text>
<text transform="matrix(1 0 0 1 249.4486 106.731)" class="st22 st23 st26">	</text>
<text transform="matrix(1 0 0 1 259.473 106.731)" class="st22 st23">BCM</text>
<text transform="matrix(1 0 0 1 284.8812 106.731)" class="st22 st23 st27">	</text>
<text transform="matrix(1 0 0 1 307.9681 106.731)" class="st22 st23">J8</text>
<text transform="matrix(1 0 0 1 22.6771 137.8809)" class="st22 st28 st29">	</text>
<text transform="matrix(1 0 0 1 179.9593 137.8809)" class="st22 st28">3.3V</text>
<text transform="matrix(1 0 0 1 214.0159 137.8809)" class="st22 st28 st30">		</text>
<text transform="matrix(1 0 0 1 284.8821 137.8809)" class="st22 st28 st31">	</text>
<text transform="matrix(1 0 0 1 309.8421 137.8809)" class="st22 st28">1</text>
<text transform="matrix(1 0 0 1 22.6771 169.0308)" class="st22 st28 st32">	</text>
<text transform="matrix(1 0 0 1 154.1038 169.0308)" class="st22 st28">I</text>
<text transform="matrix(0.583 0 0 0.583 158.2464 159.707)" class="st22 st28">2</text>
<text transform="matrix(1 0 0 1 163.6351 169.0308)" class="st22 st28">C </text>
<text transform="matrix(1 0 0 1 184.7308 169.0308)" class="st21 st22 st28">SDA</text>
<text transform="matrix(1 0 0 1 214.0159 169.0308)" class="st22 st28 st27">	</text>
<text transform="matrix(1 0 0 1 240.2064 169.0308)" class="st33 st22 st28">8</text>
<text transform="matrix(1 0 0 1 249.4486 169.0308)" class="st33 st22 st28 st27">	</text>
<text transform="matrix(1 0 0 1 275.64 169.0308)" class="st33 st22 st28">2</text>
<text transform="matrix(1 0 0 1 284.8821 169.0308)" class="st33 st22 st28 st27">	</text>
<text transform="matrix(1 0 0 1 311.0726 169.0308)" class="st33 st22 st28">3</text>
<text transform="matrix(1 0 0 1 22.6771 200.1807)" class="st22 st28 st34">	</text>
<text transform="matrix(1 0 0 1 156.8245 200.1807)" class="st22 st28">I</text>
<text transform="matrix(0.583 0 0 0.583 160.9671 190.8569)" class="st22 st28">2</text>
<text transform="matrix(1 0 0 1 166.3558 200.1807)" class="st22 st28">C </text>
<text transform="matrix(1 0 0 1 187.4515 200.1807)" class="st21 st22 st28">SCL</text>
<text transform="matrix(1 0 0 1 214.0159 200.1807)" class="st22 st28 st27">	</text>
<text transform="matrix(1 0 0 1 240.3568 200.1807)" class="st33 st22 st28">9</text>
<text transform="matrix(1 0 0 1 249.4486 200.1807)" class="st33 st22 st28 st27">	</text>
<text transform="matrix(1 0 0 1 275.64 200.1807)" class="st33 st22 st28">3</text>
<text transform="matrix(1 0 0 1 284.8821 200.1807)" class="st33 st22 st28 st27">	</text>
<text transform="matrix(1 0 0 1 311.2093 200.1807)" class="st33 st22 st28">5</text>
<text transform="matrix(1 0 0 1 22.6771 231.3311)" class="st22 st28 st35">	</text>
<text transform="matrix(1 0 0 1 155.7738 231.3311)" class="st36 st22 st28">GPCLK0</text>
<text transform="matrix(1 0 0 1 214.0159 231.3311)" class="st22 st28 st27">	</text>
<text transform="matrix(1 0 0 1 240.015 231.3311)" class="st33 st22 st28">7</text>
<text transform="matrix(1 0 0 1 249.4486 231.3311)" class="st33 st22 st28 st27">	</text>
<text transform="matrix(1 0 0 1 275.845 231.3311)" class="st33 st22 st28">4</text>
<text transform="matrix(1 0 0 1 284.8821 231.3311)" class="st33 st22 st28 st27">	</text>
<text transform="matrix(1 0 0 1 310.8812 231.3311)" class="st33 st22 st28">7</text>
<text transform="matrix(1 0 0 1 22.6771 262.481)" class="st22 st28 st37">	</text>
<text transform="matrix(1 0 0 1 157.6605 262.481)" class="st22 st28">Ground</text>
<text transform="matrix(1 0 0 1 214.0159 262.481)" class="st22 st28 st30">		</text>
<text transform="matrix(1 0 0 1 284.8821 262.481)" class="st22 st28 st27">	</text>
<text transform="matrix(1 0 0 1 311.223 262.481)" class="st22 st28">9</text>
<text transform="matrix(1 0 0 1 22.6771 293.6309)" class="st22 st28 st38">	</text>
<text transform="matrix(1 0 0 1 214.0159 293.6309)" class="st22 st28 st27">	</text>
<text transform="matrix(1 0 0 1 240.3158 293.6309)" class="st22 st28">0</text>
<text transform="matrix(1 0 0 1 249.4486 293.6309)" class="st22 st28 st39">	</text>
<text transform="matrix(1 0 0 1 264.9759 293.6309)" class="st22 st28">17</text>
<text transform="matrix(1 0 0 1 284.8821 293.6309)" class="st22 st28 st40">	</text>
<text transform="matrix(1 0 0 1 299.3694 293.6309)" class="st22 st28">11</text>
<text transform="matrix(1 0 0 1 22.6771 324.7808)" class="st22 st28 st41">	</text>
<text transform="matrix(1 0 0 1 132.5452 324.7808)" class="st22 st28">SDIO </text>
<text transform="matrix(1 0 0 1 177.1429 324.7808)" class="st36 st22 st28">DAT3</text>
<text transform="matrix(1 0 0 1 214.0159 324.7808)" class="st36 st22 st28 st27">	</text>
<text transform="matrix(1 0 0 1 240.2064 324.7808)" class="st22 st28">2</text>
<text transform="matrix(1 0 0 1 249.4486 324.7808)" class="st22 st28 st42">	</text>
<text transform="matrix(1 0 0 1 266.2064 324.7808)" class="st22 st28">27</text>
<text transform="matrix(1 0 0 1 284.8821 324.7808)" class="st22 st28 st39">	</text>
<text transform="matrix(1 0 0 1 300.5999 324.7808)" class="st22 st28">13</text>
<text transform="matrix(1 0 0 1 22.6771 355.9307)" class="st22 st28 st43">	</text>
<text transform="matrix(1 0 0 1 141.7327 355.9307)" class="st22 st28">SDIO </text>
<text transform="matrix(1 0 0 1 186.3304 355.9307)" class="st36 st22 st28">CLK</text>
<text transform="matrix(1 0 0 1 214.0159 355.9307)" class="st22 st28 st27">	</text>
<text transform="matrix(1 0 0 1 240.2064 355.9307)" class="st22 st28">3</text>
<text transform="matrix(1 0 0 1 249.4486 355.9307)" class="st22 st28 st42">	</text>
<text transform="matrix(1 0 0 1 266.3978 355.9307)" class="st22 st28">22</text>
<text transform="matrix(1 0 0 1 284.8821 355.9307)" class="st22 st28 st39">	</text>
<text transform="matrix(1 0 0 1 300.7366 355.9307)" class="st22 st28">15</text>
<text transform="matrix(1 0 0 1 22.6771 387.0811)" class="st22 st28 st29">	</text>
<text transform="matrix(1 0 0 1 179.9593 387.0811)" class="st22 st28">3.3V</text>
<text transform="matrix(1 0 0 1 214.0159 387.0811)" class="st22 st28 st30">		</text>
<text transform="matrix(1 0 0 1 284.8821 387.0811)" class="st22 st28 st39">	</text>
<text transform="matrix(1 0 0 1 300.4085 387.0811)" class="st22 st28">17</text>
<text transform="matrix(1 0 0 1 22.6771 418.231)" class="st22 st28 st44">	</text>
<text transform="matrix(1 0 0 1 145.7386 418.231)" class="st22 st28">SPI</text>
<text transform="matrix(1 0 0 1 166.807 418.231)" class="st45 st22 st28"> MOSI</text>
<text transform="matrix(1 0 0 1 214.0159 418.231)" class="st22 st28 st39">	</text>
<text transform="matrix(1 0 0 1 229.7337 418.231)" class="st22 st28">12</text>
<text transform="matrix(1 0 0 1 249.4486 418.231)" class="st22 st28 st39">	</text>
<text transform="matrix(1 0 0 1 265.2767 418.231)" class="st22 st28">10</text>
<text transform="matrix(1 0 0 1 284.8821 418.231)" class="st22 st28 st39">	</text>
<text transform="matrix(1 0 0 1 300.7503 418.231)" class="st22 st28">19</text>
<text transform="matrix(1 0 0 1 22.6771 449.3804)" class="st22 st28 st44">	</text>
<text transform="matrix(1 0 0 1 145.7386 449.3804)" class="st22 st28">SPI</text>
<text transform="matrix(1 0 0 1 166.807 449.3804)" class="st45 st22 st28"> MISO</text>
<text transform="matrix(1 0 0 1 214.0159 449.3804)" class="st22 st28 st39">	</text>
<text transform="matrix(1 0 0 1 229.7337 449.3804)" class="st22 st28">13</text>
<text transform="matrix(1 0 0 1 249.4486 449.3804)" class="st22 st28 st27">	</text>
<text transform="matrix(1 0 0 1 275.7903 449.3804)" class="st22 st28">9</text>
<text transform="matrix(1 0 0 1 284.8821 449.3804)" class="st22 st28 st39">	</text>
<text transform="matrix(1 0 0 1 300.5999 449.3804)" class="st22 st28">21</text>
<text transform="matrix(1 0 0 1 22.6771 480.5308)" class="st22 st28 st46">	</text>
<text transform="matrix(1 0 0 1 147.9534 480.5308)" class="st22 st28">SPI</text>
<text transform="matrix(1 0 0 1 169.0218 480.5308)" class="st45 st22 st28"> SCLK</text>
<text transform="matrix(1 0 0 1 214.0159 480.5308)" class="st22 st28 st39">	</text>
<text transform="matrix(1 0 0 1 229.9388 480.5308)" class="st22 st28">14</text>
<text transform="matrix(1 0 0 1 249.4486 480.5308)" class="st22 st28 st40">	</text>
<text transform="matrix(1 0 0 1 263.9368 480.5308)" class="st22 st28">11</text>
<text transform="matrix(1 0 0 1 284.8821 480.5308)" class="st22 st28 st42">	</text>
<text transform="matrix(1 0 0 1 301.8304 480.5308)" class="st22 st28">23</text>
<text transform="matrix(1 0 0 1 22.6771 511.6812)" class="st22 st28 st37">	</text>
<text transform="matrix(1 0 0 1 157.6605 511.6812)" class="st22 st28">Ground</text>
<text transform="matrix(1 0 0 1 214.0159 511.6812)" class="st22 st28 st30">		</text>
<text transform="matrix(1 0 0 1 284.8821 511.6812)" class="st22 st28 st42">	</text>
<text transform="matrix(1 0 0 1 301.9671 511.6812)" class="st22 st28">25</text>
<text transform="matrix(1 0 0 1 22.6771 542.8306)" class="st22 st28 st47">	</text>
<text transform="matrix(1 0 0 1 84.7738 542.8306)" class="st22 st28">I</text>
<text transform="matrix(0.583 0 0 0.583 88.9163 533.5063)" class="st22 st28">2</text>
<text transform="matrix(1 0 0 1 94.305 542.8306)" class="st22 st28">C </text>
<text transform="matrix(1 0 0 1 115.4007 542.8306)" class="st48 st22 st28">SDA EEPROM</text>
<text transform="matrix(1 0 0 1 214.0159 542.8306)" class="st48 st22 st28 st42">	</text>
<text transform="matrix(1 0 0 1 231.0736 542.8306)" class="st48 st22 st28">30</text>
<text transform="matrix(1 0 0 1 249.4486 542.8306)" class="st48 st22 st28 st27">	</text>
<text transform="matrix(1 0 0 1 275.7493 542.8306)" class="st48 st22 st28">0</text>
<text transform="matrix(1 0 0 1 284.8821 542.8306)" class="st48 st22 st28 st42">	</text>
<text transform="matrix(1 0 0 1 301.639 542.8306)" class="st48 st22 st28">27</text>
<text transform="matrix(1 0 0 1 22.6771 573.981)" class="st22 st28 st49">	</text>
<text transform="matrix(1 0 0 1 154.4339 573.981)" class="st36 st22 st28">GPCLK1</text>
<text transform="matrix(1 0 0 1 214.0159 573.981)" class="st22 st28 st39">	</text>
<text transform="matrix(1 0 0 1 229.7337 573.981)" class="st33 st22 st28">21</text>
<text transform="matrix(1 0 0 1 249.4486 573.981)" class="st33 st22 st28 st27">	</text>
<text transform="matrix(1 0 0 1 275.7767 573.981)" class="st33 st22 st28">5</text>
<text transform="matrix(1 0 0 1 284.8821 573.981)" class="st33 st22 st28 st42">	</text>
<text transform="matrix(1 0 0 1 301.9808 573.981)" class="st33 st22 st28">29</text>
<text transform="matrix(1 0 0 1 22.6771 605.1304)" class="st22 st28 st35">	</text>
<text transform="matrix(1 0 0 1 155.6644 605.1304)" class="st36 st22 st28">GPCLK2</text>
<text transform="matrix(1 0 0 1 214.0159 605.1304)" class="st22 st28 st42">	</text>
<text transform="matrix(1 0 0 1 230.9642 605.1304)" class="st33 st22 st28">22</text>
<text transform="matrix(1 0 0 1 249.4486 605.1304)" class="st33 st22 st28 st27">	</text>
<text transform="matrix(1 0 0 1 275.7903 605.1304)" class="st33 st22 st28">6</text>
<text transform="matrix(1 0 0 1 284.8821 605.1304)" class="st33 st22 st28 st39">	</text>
<text transform="matrix(1 0 0 1 300.5999 605.1304)" class="st33 st22 st28">31</text>
<text transform="matrix(1 0 0 1 22.6771 636.2808)" class="st22 st28 st24">	</text>
<text transform="matrix(1 0 0 1 167.5726 636.2808)" class="st36 st22 st28">PWM1</text>
<text transform="matrix(1 0 0 1 214.0159 636.2808)" class="st22 st28 st42">	</text>
<text transform="matrix(1 0 0 1 230.9642 636.2808)" class="st22 st28">23</text>
<text transform="matrix(1 0 0 1 249.4486 636.2808)" class="st22 st28 st39">	</text>
<text transform="matrix(1 0 0 1 265.1673 636.2808)" class="st22 st28">13</text>
<text transform="matrix(1 0 0 1 284.8821 636.2808)" class="st22 st28 st42">	</text>
<text transform="matrix(1 0 0 1 301.8304 636.2808)" class="st22 st28">33</text>
<text transform="matrix(1 0 0 1 22.6771 667.4312)" class="st22 st28 st50">	</text>
<text transform="matrix(1 0 0 1 143.18 667.4312)" class="st22 st28">I</text>
<text transform="matrix(0.583 0 0 0.583 147.3226 658.1069)" class="st22 st28">2</text>
<text transform="matrix(1 0 0 1 152.7113 667.4312)" class="st22 st28">S </text>
<text transform="matrix(1 0 0 1 170.0199 667.4312)" class="st51 st22 st28">LRCLK</text>
<text transform="matrix(1 0 0 1 214.0159 667.4312)" class="st22 st28 st42">	</text>
<text transform="matrix(1 0 0 1 231.1693 667.4312)" class="st22 st28">24</text>
<text transform="matrix(1 0 0 1 249.4486 667.4312)" class="st22 st28 st39">	</text>
<text transform="matrix(1 0 0 1 265.3177 667.4312)" class="st22 st28">19</text>
<text transform="matrix(1 0 0 1 284.8821 667.4312)" class="st22 st28 st42">	</text>
<text transform="matrix(1 0 0 1 301.9671 667.4312)" class="st22 st28">35</text>
<text transform="matrix(1 0 0 1 22.6771 698.5806)" class="st22 st28 st41">	</text>
<text transform="matrix(1 0 0 1 132.5452 698.5806)" class="st22 st28">SDIO </text>
<text transform="matrix(1 0 0 1 177.1429 698.5806)" class="st36 st22 st28">DAT2</text>
<text transform="matrix(1 0 0 1 214.0159 698.5806)" class="st22 st28 st42">	</text>
<text transform="matrix(1 0 0 1 231.1009 698.5806)" class="st22 st28">25</text>
<text transform="matrix(1 0 0 1 249.4486 698.5806)" class="st22 st28 st42">	</text>
<text transform="matrix(1 0 0 1 266.5482 698.5806)" class="st22 st28">26</text>
<text transform="matrix(1 0 0 1 284.8821 698.5806)" class="st22 st28 st42">	</text>
<text transform="matrix(1 0 0 1 301.639 698.5806)" class="st22 st28">37</text>
<text transform="matrix(1 0 0 1 320.3148 698.5806)" class="st22 st28 st27">	</text>
<text transform="matrix(1 0 0 1 22.6771 729.731)" class="st22 st28 st37">	</text>
<text transform="matrix(1 0 0 1 157.6605 729.731)" class="st22 st28">Ground</text>
<text transform="matrix(1 0 0 1 214.0159 729.731)" class="st22 st28 st30">		</text>
<text transform="matrix(1 0 0 1 284.8821 729.731)" class="st22 st28 st42">	</text>
<text transform="matrix(1 0 0 1 301.9808 729.731)" class="st22 st28">39</text>
<rect x="419.5" y="96.4" class="st20" width="297.6" height="648.8"/>
<text transform="matrix(1 0 0 1 419.528 106.731)" class="st22 st23">J8</text>
<text transform="matrix(1 0 0 1 431.8737 106.731)" class="st22 st23 st27">	</text>
<text transform="matrix(1 0 0 1 454.9611 106.731)" class="st22 st23">BCM</text>
<text transform="matrix(1 0 0 1 480.3703 106.731)" class="st22 st23 st26">	</text>
<text transform="matrix(1 0 0 1 490.3942 106.731)" class="st22 st23">wPi</text>
<text transform="matrix(1 0 0 1 509.1589 106.731)" class="st22 st23 st25">	</text>
<text transform="matrix(1 0 0 1 525.8273 106.731)" class="st22 st23">Function</text>
<text transform="matrix(1 0 0 1 419.528 137.8809)" class="st22 st28">2</text>
<text transform="matrix(1 0 0 1 428.7702 137.8809)" class="st22 st28 st27">	</text>
<text transform="matrix(1 0 0 1 454.9611 137.8809)" class="st22 st28 st30">		</text>
<text transform="matrix(1 0 0 1 525.8273 137.8809)" class="st22 st28">5V</text>
<text transform="matrix(1 0 0 1 419.528 169.0308)" class="st22 st28">4</text>
<text transform="matrix(1 0 0 1 428.5651 169.0308)" class="st22 st28 st27">	</text>
<text transform="matrix(1 0 0 1 454.9611 169.0308)" class="st22 st28 st30">		</text>
<text transform="matrix(1 0 0 1 525.8273 169.0308)" class="st22 st28">5V</text>
<text transform="matrix(1 0 0 1 419.528 200.1807)" class="st22 st28">6</text>
<text transform="matrix(1 0 0 1 428.6198 200.1807)" class="st22 st28 st27">	</text>
<text transform="matrix(1 0 0 1 454.9611 200.1807)" class="st22 st28 st30">		</text>
<text transform="matrix(1 0 0 1 525.8273 200.1807)" class="st22 st28">Ground</text>
<text transform="matrix(1 0 0 1 419.528 231.3311)" class="st22 st28">8</text>
<text transform="matrix(1 0 0 1 428.7702 231.3311)" class="st22 st28 st27">	</text>
<text transform="matrix(1 0 0 1 454.9611 231.3311)" class="st22 st28">14</text>
<text transform="matrix(1 0 0 1 474.4709 231.3311)" class="st22 st28 st39">	</text>
<text transform="matrix(1 0 0 1 490.3942 231.3311)" class="st22 st28">15</text>
<text transform="matrix(1 0 0 1 509.9724 231.3311)" class="st22 st28 st39">	</text>
<text transform="matrix(1 0 0 1 525.8273 231.3311)" class="st22 st28">UART </text>
<text transform="matrix(1 0 0 1 571.2316 231.3311)" class="st52 st22 st28">TXD</text>
<text transform="matrix(1 0 0 1 419.528 262.481)" class="st22 st28">10</text>
<text transform="matrix(1 0 0 1 439.1335 262.481)" class="st22 st28 st39">	</text>
<text transform="matrix(1 0 0 1 454.9611 262.481)" class="st22 st28">15</text>
<text transform="matrix(1 0 0 1 474.5392 262.481)" class="st22 st28 st39">	</text>
<text transform="matrix(1 0 0 1 490.3942 262.481)" class="st22 st28">16</text>
<text transform="matrix(1 0 0 1 509.9587 262.481)" class="st22 st28 st39">	</text>
<text transform="matrix(1 0 0 1 525.8273 262.481)" class="st22 st28">UART </text>
<text transform="matrix(1 0 0 1 571.2316 262.481)" class="st52 st22 st28">RXD</text>
<text transform="matrix(1 0 0 1 419.528 293.6309)" class="st22 st28">12</text>
<text transform="matrix(1 0 0 1 439.2429 293.6309)" class="st22 st28 st39">	</text>
<text transform="matrix(1 0 0 1 454.9611 293.6309)" class="st22 st28">18</text>
<text transform="matrix(1 0 0 1 474.676 293.6309)" class="st22 st28 st39">	</text>
<text transform="matrix(1 0 0 1 490.3942 293.6309)" class="st22 st28">1</text>
<text transform="matrix(1 0 0 1 500.8669 293.6309)" class="st22 st28 st31">	</text>
<text transform="matrix(1 0 0 1 525.8273 293.6309)" class="st22 st28">I</text>
<text transform="matrix(0.583 0 0 0.583 529.9699 284.3066)" class="st22 st28">2</text>
<text transform="matrix(1 0 0 1 535.3581 293.6309)" class="st22 st28">S </text>
<text transform="matrix(1 0 0 1 552.6667 293.6309)" class="st51 st22 st28">BCLK</text>
<text transform="matrix(1 0 0 1 419.528 324.7808)" class="st22 st28">14</text>
<text transform="matrix(1 0 0 1 439.0378 324.7808)" class="st22 st28 st39">	</text>
<text transform="matrix(1 0 0 1 454.9611 324.7808)" class="st22 st28 st30">		</text>
<text transform="matrix(1 0 0 1 525.8273 324.7808)" class="st22 st28">Ground</text>
<text transform="matrix(1 0 0 1 419.528 355.9307)" class="st22 st28">16</text>
<text transform="matrix(1 0 0 1 439.0925 355.9307)" class="st22 st28 st39">	</text>
<text transform="matrix(1 0 0 1 454.9611 355.9307)" class="st22 st28">23</text>
<text transform="matrix(1 0 0 1 473.4455 355.9307)" class="st22 st28 st42">	</text>
<text transform="matrix(1 0 0 1 490.3942 355.9307)" class="st22 st28">4</text>
<text transform="matrix(1 0 0 1 499.4313 355.9307)" class="st22 st28 st27">	</text>
<text transform="matrix(1 0 0 1 525.8273 355.9307)" class="st22 st28">SDIO </text>
<text transform="matrix(1 0 0 1 570.425 355.9307)" class="st36 st22 st28">CMD</text>
<text transform="matrix(1 0 0 1 419.528 387.0811)" class="st22 st28">18</text>
<text transform="matrix(1 0 0 1 439.2429 387.0811)" class="st22 st28 st39">	</text>
<text transform="matrix(1 0 0 1 454.9611 387.0811)" class="st22 st28">24</text>
<text transform="matrix(1 0 0 1 473.2404 387.0811)" class="st22 st28 st42">	</text>
<text transform="matrix(1 0 0 1 490.3942 387.0811)" class="st22 st28">5</text>
<text transform="matrix(1 0 0 1 499.4997 387.0811)" class="st22 st28 st27">	</text>
<text transform="matrix(1 0 0 1 525.8273 387.0811)" class="st22 st28">SDIO </text>
<text transform="matrix(1 0 0 1 570.425 387.0811)" class="st36 st22 st28">DAT0</text>
<text transform="matrix(1 0 0 1 419.528 418.231)" class="st22 st28">20</text>
<text transform="matrix(1 0 0 1 437.903 418.231)" class="st22 st28 st42">	</text>
<text transform="matrix(1 0 0 1 454.9611 418.231)" class="st22 st28 st30">		</text>
<text transform="matrix(1 0 0 1 525.8273 418.231)" class="st22 st28">Ground</text>
<text transform="matrix(1 0 0 1 419.528 449.3804)" class="st22 st28">22</text>
<text transform="matrix(1 0 0 1 438.0124 449.3804)" class="st22 st28 st42">	</text>
<text transform="matrix(1 0 0 1 454.9611 449.3804)" class="st22 st28">25</text>
<text transform="matrix(1 0 0 1 473.3088 449.3804)" class="st22 st28 st42">	</text>
<text transform="matrix(1 0 0 1 490.3942 449.3804)" class="st22 st28">6</text>
<text transform="matrix(1 0 0 1 499.486 449.3804)" class="st22 st28 st27">	</text>
<text transform="matrix(1 0 0 1 525.8273 449.3804)" class="st22 st28">SDIO </text>
<text transform="matrix(1 0 0 1 570.425 449.3804)" class="st36 st22 st28">DAT1</text>
<text transform="matrix(1 0 0 1 419.528 480.5308)" class="st33 st22 st28">24</text>
<text transform="matrix(1 0 0 1 437.8073 480.5308)" class="st33 st22 st28 st42">	</text>
<text transform="matrix(1 0 0 1 454.9611 480.5308)" class="st33 st22 st28">8</text>
<text transform="matrix(1 0 0 1 464.2033 480.5308)" class="st33 st22 st28 st27">	</text>
<text transform="matrix(1 0 0 1 490.3942 480.5308)" class="st33 st22 st28">10</text>
<text transform="matrix(1 0 0 1 509.9997 480.5308)" class="st22 st28 st39">	</text>
<text transform="matrix(1 0 0 1 525.8273 480.5308)" class="st22 st28">SPI</text>
<text transform="matrix(1 0 0 1 546.8957 480.5308)" class="st45 st22 st28"> CE0</text>
<text transform="matrix(1 0 0 1 419.528 511.6812)" class="st33 st22 st28">26</text>
<text transform="matrix(1 0 0 1 437.862 511.6812)" class="st33 st22 st28 st42">	</text>
<text transform="matrix(1 0 0 1 454.9611 511.6812)" class="st33 st22 st28">7</text>
<text transform="matrix(1 0 0 1 464.3947 511.6812)" class="st33 st22 st28 st27">	</text>
<text transform="matrix(1 0 0 1 490.3942 511.6812)" class="st33 st22 st28">11</text>
<text transform="matrix(1 0 0 1 511.3395 511.6812)" class="st22 st28 st40">	</text>
<text transform="matrix(1 0 0 1 525.8273 511.6812)" class="st22 st28">SPI</text>
<text transform="matrix(1 0 0 1 546.8957 511.6812)" class="st45 st22 st28"> CE1</text>
<text transform="matrix(1 0 0 1 419.528 542.8306)" class="st48 st22 st28">28</text>
<text transform="matrix(1 0 0 1 438.0124 542.8306)" class="st48 st22 st28 st42">	</text>
<text transform="matrix(1 0 0 1 454.9611 542.8306)" class="st48 st22 st28">1</text>
<text transform="matrix(1 0 0 1 465.4338 542.8306)" class="st48 st22 st28 st31">	</text>
<text transform="matrix(1 0 0 1 490.3942 542.8306)" class="st48 st22 st28">31</text>
<text transform="matrix(1 0 0 1 510.1091 542.8306)" class="st48 st22 st28 st39">	</text>
<text transform="matrix(1 0 0 1 525.8273 542.8306)" class="st22 st28">I</text>
<text transform="matrix(0.583 0 0 0.583 529.9699 533.5063)" class="st22 st28">2</text>
<text transform="matrix(1 0 0 1 535.3581 542.8306)" class="st22 st28">C</text>
<text transform="matrix(1 0 0 1 547.0202 542.8306)" class="st48 st22 st28"> SCL EEPROM</text>
<text transform="matrix(1 0 0 1 419.528 573.981)" class="st22 st28">30</text>
<text transform="matrix(1 0 0 1 437.903 573.981)" class="st22 st28 st42">	</text>
<text transform="matrix(1 0 0 1 454.9611 573.981)" class="st22 st28 st30">		</text>
<text transform="matrix(1 0 0 1 525.8273 573.981)" class="st22 st28">Ground</text>
<text transform="matrix(1 0 0 1 419.528 605.1304)" class="st22 st28">32</text>
<text transform="matrix(1 0 0 1 438.0124 605.1304)" class="st22 st28 st42">	</text>
<text transform="matrix(1 0 0 1 454.9611 605.1304)" class="st22 st28">12</text>
<text transform="matrix(1 0 0 1 474.676 605.1304)" class="st22 st28 st39">	</text>
<text transform="matrix(1 0 0 1 490.3942 605.1304)" class="st22 st28">26</text>
<text transform="matrix(1 0 0 1 508.7282 605.1304)" class="st22 st28 st42">	</text>
<text transform="matrix(1 0 0 1 525.8273 605.1304)" class="st36 st22 st28">PWM0</text>
<text transform="matrix(1 0 0 1 419.528 636.2808)" class="st22 st28">34</text>
<text transform="matrix(1 0 0 1 437.8073 636.2808)" class="st22 st28 st42">	</text>
<text transform="matrix(1 0 0 1 454.9611 636.2808)" class="st22 st28 st30">		</text>
<text transform="matrix(1 0 0 1 525.8273 636.2808)" class="st22 st28">Ground</text>
<text transform="matrix(1 0 0 1 419.528 667.4312)" class="st22 st28">36</text>
<text transform="matrix(1 0 0 1 437.862 667.4312)" class="st22 st28 st42">	</text>
<text transform="matrix(1 0 0 1 454.9611 667.4312)" class="st22 st28">16</text>
<text transform="matrix(1 0 0 1 474.5256 667.4312)" class="st22 st28 st39">	</text>
<text transform="matrix(1 0 0 1 490.3942 667.4312)" class="st22 st28">27</text>
<text transform="matrix(1 0 0 1 419.528 698.5806)" class="st22 st28">38</text>
<text transform="matrix(1 0 0 1 438.0124 698.5806)" class="st22 st28 st42">	</text>
<text transform="matrix(1 0 0 1 454.9611 698.5806)" class="st22 st28">20</text>
<text transform="matrix(1 0 0 1 473.3361 698.5806)" class="st22 st28 st42">	</text>
<text transform="matrix(1 0 0 1 490.3942 698.5806)" class="st22 st28">28</text>
<text transform="matrix(1 0 0 1 508.8786 698.5806)" class="st22 st28 st42">	</text>
<text transform="matrix(1 0 0 1 525.8273 698.5806)" class="st22 st28">I</text>
<text transform="matrix(0.583 0 0 0.583 529.9699 689.2573)" class="st22 st28">2</text>
<text transform="matrix(1 0 0 1 535.3581 698.5806)" class="st22 st28">S </text>
<text transform="matrix(1 0 0 1 552.6667 698.5806)" class="st51 st22 st28">DIN</text>
<text transform="matrix(1 0 0 1 419.528 729.731)" class="st22 st28">40</text>
<text transform="matrix(1 0 0 1 437.6979 729.731)" class="st22 st28 st42">	</text>
<text transform="matrix(1 0 0 1 454.9611 729.731)" class="st22 st28">21</text>
<text transform="matrix(1 0 0 1 474.676 729.731)" class="st22 st28 st39">	</text>
<text transform="matrix(1 0 0 1 490.3942 729.731)" class="st22 st28">29</text>
<text transform="matrix(1 0 0 1 508.7282 729.731)" class="st22 st28 st42">	</text>
<text transform="matrix(1 0 0 1 525.8273 729.731)" class="st22 st28">I</text>
<text transform="matrix(0.583 0 0 0.583 529.9699 720.4067)" class="st22 st28">2</text>
<text transform="matrix(1 0 0 1 535.3581 729.731)" class="st22 st28">S </text>
<text transform="matrix(1 0 0 1 552.6667 729.731)" class="st51 st22 st28">DOUT</text>
<circle class="st7" cx="382.7" cy="130.4" r="11.3"/>
<text transform="matrix(0.583 0 0 0.583 37.5429 760.957)"><tspan x="0" y="0" class="st22 st53">On boot:</tspan><tspan x="90.4" y="0" class="st22 st53 st54">	</tspan><tspan x="95.3" y="0" class="st22 st53">#BCM </tspan><tspan x="166.8" y="0" class="st33 st22 st53">2-8</tspan><tspan x="199.3" y="0" class="st22 st53 st55">	</tspan><tspan x="218.4" y="0" class="st22 st53">-</tspan><tspan x="227.2" y="0" class="st56 st22 st53">	</tspan><tspan x="239.2" y="0" class="st56 st22 st53">3.3V</tspan><tspan x="282.9" y="0" class="st56 st22 st53 st57">	</tspan><tspan x="297.6" y="0" class="st22 st53">pullup input</tspan><tspan x="0" y="34.3" class="st56 st22 st53 st58">	</tspan><tspan x="95.3" y="34.3" class="st56 st22 st53">#BCM 9-27</tspan><tspan x="211.2" y="34.3" class="st56 st22 st53 st59">	</tspan><tspan x="218.4" y="34.3" class="st56 st22 st53">-</tspan><tspan x="227.2" y="34.3" class="st56 st22 st53 st60">	</tspan><tspan x="258.3" y="34.3" class="st56 st22 st53">0V</tspan><tspan x="282.9" y="34.3" class="st56 st22 st53 st57">	</tspan><tspan x="297.6" y="34.3" class="st56 st22 st53">pulldown input</tspan><tspan x="0" y="68.6" class="st61 st22 st53">RPi.GPIO supports #BCM 2-27</tspan></text>
<circle class="st62" cx="351.5" cy="161.6" r="4.3"/>
<circle class="st62" cx="351.5" cy="192.8" r="4.3"/>
<circle class="st62" cx="351.5" cy="223.9" r="4.3"/>
<circle class="st62" cx="382.7" cy="473.4" r="4.3"/>
<circle class="st62" cx="382.7" cy="504.6" r="4.3"/>
<circle class="st62" cx="351.5" cy="566.9" r="4.3"/>
<circle class="st62" cx="351.5" cy="598.1" r="4.3"/>
<text transform="matrix(0.583 0 0 0.583 510.6909 786.3148)"><tspan x="0" y="0" class="st22 st63">Raspberry</tspan><tspan x="157.7" y="20.6" class="st22 st64"> </tspan><tspan x="165.6" y="0" class="st22 st63">Pi</tspan><tspan x="193.8" y="0" class="st65 st22 st63">3</tspan><tspan x="213.6" y="0" class="st22 st63"> GPIO</tspan></text>
<g>
	<path d="M480.1,752.5c-0.2,0-0.5,0.1-0.8,0.3c-0.7-0.3-1.4-0.4-2.1,0.2c-1-0.1-1.3,0.1-1.5,0.4c-0.2,0-1.6-0.2-2.2,0.7
		c-1.6-0.2-2.1,0.9-1.5,2c-0.3,0.5-0.7,1,0.1,2c-0.3,0.5-0.1,1.1,0.5,1.8c-0.2,0.8,0.2,1.3,0.8,1.7c-0.1,1,0.9,1.6,1.3,1.8
		c0.1,0.6,0.4,1.2,1.6,1.5c0.2,0.9,0.9,1.1,1.6,1.2c-2.3,1.4-4.3,3.1-4.3,7.5l-0.3,0.6c-2.7,1.6-5.1,6.8-1.3,11.1
		c0.2,1.3,0.7,2.3,1,3.3c0.5,4.3,4.1,6.2,5.1,6.5c1.4,1.1,2.9,2.1,4.8,2.8c1.9,1.9,3.9,2.7,6,2.7c0,0,4.2-0.7,6-2.7
		c2-0.7,3.5-1.7,4.8-2.8c0.9-0.2,4.5-2.2,5.1-6.5c0.4-1.1,0.8-2,1-3.3c3.8-4.2,1.4-9.5-1.3-11.1l-0.3-0.6c0-4.4-2-6.1-4.3-7.5
		c0.7-0.2,1.4-0.3,1.6-1.2c1.2-0.3,1.5-0.9,1.6-1.5c0.3-0.2,1.4-0.8,1.3-1.8c0.6-0.4,0.9-0.9,0.8-1.7c0.6-0.7,0.8-1.3,0.5-1.8
		c0.8-1,0.4-1.5,0.1-2c0.6-1.1,0.1-2.2-1.5-2c-0.6-1-2-0.7-2.2-0.7c-0.2-0.3-0.6-0.6-1.5-0.4c-0.6-0.6-1.3-0.5-2.1-0.2
		c-0.9-0.7-1.4-0.1-2.1,0.1c-1-0.3-1.3,0.1-1.8,0.3c-1.1-0.2-1.5,0.3-2,0.8l-0.6,0c-1.7,1-2.6,3.1-2.9,4.1c-0.3-1.1-1.2-3.1-2.9-4.1
		l-0.6,0c-0.5-0.6-0.9-1.1-2-0.8c-0.5-0.2-0.8-0.7-1.8-0.3C480.9,752.8,480.5,752.5,480.1,752.5"/>
	<path class="st66" d="M476.6,757c4.6,2.4,7.2,4.3,8.7,5.9c-0.7,3-4.6,3.1-6.1,3c0.3-0.1,0.5-0.3,0.6-0.5c-0.4-0.3-1.6,0-2.5-0.5
		c0.3-0.1,0.5-0.1,0.7-0.4c-0.8-0.3-1.7-0.5-2.3-0.9c0.3,0,0.6,0.1,0.9-0.2c-0.7-0.4-1.5-0.7-2.2-1.3c0.4,0,0.8,0,0.9-0.1
		c-0.7-0.4-1.3-0.9-1.7-1.4c0.5,0.1,0.8,0,0.9-0.1c-0.5-0.5-1.2-1-1.5-1.6c0.4,0.1,0.8,0.2,1,0c-0.2-0.4-0.9-0.6-1.4-1.6
		c0.4,0,0.9,0.1,1,0c-0.2-0.8-0.5-1.3-0.9-1.7c0.9,0,2.3,0,2.2-0.1l-0.6-0.6c0.9-0.2,1.8,0,2.4,0.2c0.3-0.2,0-0.5-0.4-0.8
		c0.8,0.1,1.4,0.3,2,0.5c0.3-0.3-0.2-0.6-0.5-0.9c1.2,0.2,1.7,0.5,2.1,0.8c0.4-0.3,0-0.6-0.2-0.9c0.9,0.3,1.3,0.7,1.8,1.2
		c0.2-0.2,0.4-0.4,0.1-0.9c0.6,0.4,1.1,0.8,1.4,1.3c0.4-0.2,0.2-0.6,0.2-0.9c0.6,0.5,1.1,1.1,1.6,1.6c0.1-0.1,0.2-0.3,0.3-0.7
		c1.5,1.5,3.7,5.3,0.6,6.8C483.4,759.8,480.2,758.2,476.6,757L476.6,757"/>
	<path class="st66" d="M500.9,757c-4.6,2.4-7.2,4.3-8.7,5.9c0.7,3,4.6,3.1,6.1,3c-0.3-0.1-0.5-0.3-0.6-0.5c0.4-0.3,1.6,0,2.5-0.5
		c-0.3-0.1-0.5-0.1-0.7-0.4c0.8-0.3,1.7-0.5,2.3-0.9c-0.3,0-0.6,0.1-0.9-0.2c0.7-0.4,1.5-0.7,2.2-1.3c-0.4,0-0.8,0-0.9-0.1
		c0.7-0.4,1.3-0.9,1.7-1.4c-0.5,0.1-0.8,0-0.9-0.1c0.5-0.5,1.2-1,1.5-1.6c-0.4,0.1-0.8,0.2-1,0c0.2-0.4,0.9-0.6,1.4-1.6
		c-0.4,0-0.9,0.1-1,0c0.2-0.8,0.5-1.3,0.9-1.7c-0.9,0-2.3,0-2.2-0.1l0.6-0.6c-0.9-0.2-1.8,0-2.4,0.2c-0.3-0.2,0-0.5,0.4-0.8
		c-0.8,0.1-1.4,0.3-2,0.5c-0.3-0.3,0.2-0.6,0.5-0.9c-1.2,0.2-1.7,0.5-2.1,0.8c-0.4-0.3,0-0.6,0.2-0.9c-0.9,0.3-1.3,0.7-1.8,1.2
		c-0.2-0.2-0.4-0.4-0.1-0.9c-0.6,0.4-1.1,0.8-1.4,1.3c-0.4-0.2-0.2-0.6-0.2-0.9c-0.6,0.5-1.1,1.1-1.6,1.6c-0.1-0.1-0.2-0.3-0.3-0.7
		c-1.5,1.5-3.7,5.3-0.6,6.8C494.1,759.8,497.3,758.2,500.9,757L500.9,757"/>
	<path class="st67" d="M494.3,787.4c0,2.8-2.4,5.1-5.5,5.1c-3,0-5.5-2.2-5.5-5c0,0,0,0,0-0.1c0-2.8,2.4-5.1,5.5-5.1
		C491.8,782.3,494.3,784.6,494.3,787.4L494.3,787.4"/>
	<path class="st67" d="M485.6,773c2.3,1.5,2.7,4.9,0.9,7.5c-1.8,2.7-5,3.6-7.3,2.1c-2.3-1.5-2.7-4.9-0.9-7.5
		C480.1,772.5,483.4,771.5,485.6,773"/>
	<path class="st67" d="M491.8,772.7c-2.3,1.5-2.7,4.9-0.9,7.5c1.8,2.7,5,3.6,7.3,2.1c2.3-1.5,2.7-4.9,0.9-7.5
		C497.3,772.2,494,771.3,491.8,772.7"/>
	<path class="st67" d="M474.3,775.4c2.5-0.7,0.8,10.1-1.2,9.3C470.9,782.9,470.2,777.8,474.3,775.4"/>
	<path class="st67" d="M502.6,775.3c-2.5-0.7-0.8,10.1,1.2,9.3C506,782.8,506.7,777.6,502.6,775.3"/>
	<path class="st67" d="M494.3,767.3c4.2-0.7,7.8,1.8,7.6,6.4C501.8,775.4,492.7,767.5,494.3,767.3"/>
	<path class="st67" d="M482.6,767.1c-4.2-0.7-7.8,1.8-7.6,6.4C475.1,775.3,484.2,767.4,482.6,767.1"/>
	<path class="st67" d="M488.7,766.1c-2.5-0.1-4.9,1.9-5,3c0,1.4,2,2.8,5,2.8c3,0,5-1.1,5-2.5C493.7,767.7,490.9,766,488.7,766.1
		L488.7,766.1"/>
	<path class="st67" d="M488.8,794.1c2.2-0.1,5.2,0.7,5.2,1.8c0,1-2.7,3.4-5.3,3.3c-2.7,0.1-5.4-2.2-5.4-3
		C483.3,795,486.7,794,488.8,794.1"/>
	<path class="st67" d="M480.7,787.8c1.6,1.9,2.3,5.2,1,6.2c-1.2,0.7-4.2,0.4-6.4-2.6c-1.4-2.6-1.3-5.2-0.2-6
		C476.6,784.4,478.9,785.7,480.7,787.8L480.7,787.8"/>
	<path class="st67" d="M496.7,787.2c-1.7,2-2.6,5.6-1.4,6.8c1.2,0.9,4.4,0.8,6.7-2.5c1.7-2.2,1.1-5.8,0.2-6.8
		C500.7,783.5,498.6,785,496.7,787.2L496.7,787.2"/>
</g>
</svg>
